<?xml version="1.0" encoding="UTF-8" standalone="no"?>
<svg
   xmlns:dc="http://purl.org/dc/elements/1.1/"
   xmlns:cc="http://creativecommons.org/ns#"
   xmlns:rdf="http://www.w3.org/1999/02/22-rdf-syntax-ns#"
   xmlns:svg="http://www.w3.org/2000/svg"
   xmlns="http://www.w3.org/2000/svg"
   xmlns:sodipodi="http://sodipodi.sourceforge.net/DTD/sodipodi-0.dtd"
   xmlns:inkscape="http://www.inkscape.org/namespaces/inkscape"
   width="170.0mm"
   height="150.0mm"
   viewBox="0 0 170.0 150.0"
   version="1.1"
   id="svg8"
   sodipodi:docname="iris-switch-plate-choc-svg2shenzhen.svg"
   inkscape:version="1.0.2-2 (e86c870879, 2021-01-15)">
  <defs
     id="defs2">
    <clipPath
       clipPathUnits="userSpaceOnUse"
       id="clipPath64">
      <path
         d="M 0,379.493 H 435.563 V 0 H 0 Z"
         id="path62" />
    </clipPath>
    <clipPath
       clipPathUnits="userSpaceOnUse"
       id="clipPath308">
      <path
         d="M 0,379.554 H 435.563 V 0 H 0 Z"
         id="path306" />
    </clipPath>
  </defs>
  <sodipodi:namedview
     id="base"
     pagecolor="#ffffff"
     bordercolor="#666666"
     borderopacity="1.0"
     inkscape:pageopacity="0.0"
     inkscape:pageshadow="2"
     inkscape:zoom="2.0866806"
     inkscape:cx="268.54454"
     inkscape:cy="283.46457"
     inkscape:document-units="mm"
     inkscape:current-layer="g16"
     inkscape:document-rotation="0"
     showgrid="false"
     inkscape:window-width="2256"
     inkscape:window-height="1425"
     inkscape:window-x="-9"
     inkscape:window-y="-9"
     inkscape:window-maximized="1" />
  <metadata
     id="metadata5">
    <rdf:RDF>
      <cc:Work
         rdf:about="">
        <dc:format>image/svg+xml</dc:format>
        <dc:type
           rdf:resource="http://purl.org/dc/dcmitype/StillImage" />
        <dc:title></dc:title>
      </cc:Work>
    </rdf:RDF>
  </metadata>
  <g
     inkscape:label="[fixed] BG"
     inkscape:groupmode="layer"
     id="g16">
    <rect
       x="0"
       y="0"
       width="170"
       height="150"
       style="display:none;fill:#ffffff;fill-opacity:1;stroke:none"
       id="rect14" />
    <g
       id="g60"
       clip-path="url(#clipPath64)"
       transform="matrix(0.35277672,0,0,-0.35277777,5,138.87669)"
       style="display:inline"
       inkscape:label="iris-bottom-plate">
      <g
         id="g66"
         transform="translate(14.3381,107.5038)">
        <path
           d="m 0,0 c 0,-1.644 -1.333,-2.976 -2.976,-2.976 -1.644,0 -2.977,1.332 -2.977,2.976 0,1.644 1.333,2.976 2.977,2.976 C -1.333,2.976 0,1.644 0,0 Z"
           style="fill:none;stroke:#c62027;stroke-width:0.576;stroke-linecap:round;stroke-linejoin:round;stroke-miterlimit:4;stroke-dasharray:none;stroke-opacity:1"
           id="path68" />
      </g>
      <g
         id="g70"
         transform="translate(200.7756,54.024)">
        <path
           d="m 0,0 c 0,-1.644 -1.333,-2.976 -2.976,-2.976 -1.644,0 -2.977,1.332 -2.977,2.976 0,1.644 1.333,2.976 2.977,2.976 C -1.333,2.976 0,1.644 0,0 Z"
           style="fill:none;stroke:#c62027;stroke-width:0.576;stroke-linecap:round;stroke-linejoin:round;stroke-miterlimit:4;stroke-dasharray:none;stroke-opacity:1"
           id="path72" />
      </g>
      <g
         id="g74"
         transform="translate(359.5881,12.1913)">
        <path
           d="m 0,0 c 0,-1.644 -1.333,-2.976 -2.976,-2.976 -1.644,0 -2.977,1.332 -2.977,2.976 0,1.644 1.333,2.976 2.977,2.976 C -1.333,2.976 0,1.644 0,0 Z"
           style="fill:none;stroke:#c62027;stroke-width:0.576;stroke-linecap:round;stroke-linejoin:round;stroke-miterlimit:4;stroke-dasharray:none;stroke-opacity:1"
           id="path76" />
      </g>
      <g
         id="g78"
         transform="translate(426.3173,128.108)">
        <path
           d="m 0,0 c 0,-1.644 -1.333,-2.976 -2.976,-2.976 -1.644,0 -2.977,1.332 -2.977,2.976 0,1.644 1.333,2.976 2.977,2.976 C -1.333,2.976 0,1.644 0,0 Z"
           style="fill:none;stroke:#c62027;stroke-width:0.576;stroke-linecap:round;stroke-linejoin:round;stroke-miterlimit:4;stroke-dasharray:none;stroke-opacity:1"
           id="path80" />
      </g>
      <g
         id="g82"
         transform="translate(351.5256,340.6601)">
        <path
           d="m 0,0 c 0,-1.644 -1.333,-2.976 -2.976,-2.976 -1.644,0 -2.977,1.332 -2.977,2.976 0,1.644 1.333,2.976 2.977,2.976 C -1.333,2.976 0,1.644 0,0 Z"
           style="fill:none;stroke:#c62027;stroke-width:0.576;stroke-linecap:round;stroke-linejoin:round;stroke-miterlimit:4;stroke-dasharray:none;stroke-opacity:1"
           id="path84" />
      </g>
      <g
         id="g86"
         transform="translate(293.252,363.8638)">
        <path
           d="m 0,0 c 0,-1.644 -1.333,-2.976 -2.976,-2.976 -1.644,0 -2.977,1.332 -2.977,2.976 0,1.644 1.333,2.976 2.977,2.976 C -1.333,2.976 0,1.644 0,0 Z"
           style="fill:none;stroke:#c62027;stroke-width:0.576;stroke-linecap:round;stroke-linejoin:round;stroke-miterlimit:4;stroke-dasharray:none;stroke-opacity:1"
           id="path88" />
      </g>
      <g
         id="g90"
         transform="translate(151.8589,365.6496)">
        <path
           d="m 0,0 c 0,-1.644 -1.333,-2.976 -2.976,-2.976 -1.644,0 -2.977,1.332 -2.977,2.976 0,1.644 1.333,2.976 2.977,2.976 C -1.333,2.976 0,1.644 0,0 Z"
           style="fill:none;stroke:#c62027;stroke-width:0.576;stroke-linecap:round;stroke-linejoin:round;stroke-miterlimit:4;stroke-dasharray:none;stroke-opacity:1"
           id="path92" />
      </g>
      <g
         id="g94"
         transform="translate(13.7756,335.0663)">
        <path
           d="m 0,0 c 0,-1.644 -1.333,-2.976 -2.976,-2.976 -1.644,0 -2.977,1.332 -2.977,2.976 0,1.644 1.333,2.976 2.977,2.976 C -1.333,2.976 0,1.644 0,0 Z"
           style="fill:none;stroke:#c62027;stroke-width:0.576;stroke-linecap:round;stroke-linejoin:round;stroke-miterlimit:4;stroke-dasharray:none;stroke-opacity:1"
           id="path96" />
      </g>
      <g
         id="g98"
         transform="translate(74.2756,275.5463)">
        <path
           d="m 0,0 c 0,-1.644 -1.333,-2.976 -2.976,-2.976 -1.644,0 -2.977,1.332 -2.977,2.976 0,1.644 1.333,2.976 2.977,2.976 C -1.333,2.976 0,1.644 0,0 Z"
           style="fill:none;stroke:#c62027;stroke-width:0.576;stroke-linecap:round;stroke-linejoin:round;stroke-miterlimit:4;stroke-dasharray:none;stroke-opacity:1"
           id="path100" />
      </g>
      <g
         id="g102"
         transform="translate(74.2756,167.5463)">
        <path
           d="m 0,0 c 0,-1.644 -1.333,-2.976 -2.976,-2.976 -1.644,0 -2.977,1.332 -2.977,2.976 0,1.644 1.333,2.976 2.977,2.976 C -1.333,2.976 0,1.644 0,0 Z"
           style="fill:none;stroke:#c62027;stroke-width:0.576;stroke-linecap:round;stroke-linejoin:round;stroke-miterlimit:4;stroke-dasharray:none;stroke-opacity:1"
           id="path104" />
      </g>
      <g
         id="g106"
         transform="translate(290.2756,177.6709)">
        <path
           d="m 0,0 c 0,-1.644 -1.333,-2.976 -2.976,-2.976 -1.644,0 -2.977,1.332 -2.977,2.976 0,1.644 1.333,2.976 2.977,2.976 C -1.333,2.976 0,1.644 0,0 Z"
           style="fill:none;stroke:#c62027;stroke-width:0.576;stroke-linecap:round;stroke-linejoin:round;stroke-miterlimit:4;stroke-dasharray:none;stroke-opacity:1"
           id="path108" />
      </g>
      <g
         id="g110"
         transform="translate(290.2756,285.6709)">
        <path
           d="m 0,0 c 0,-1.644 -1.333,-2.976 -2.976,-2.976 -1.644,0 -2.977,1.332 -2.977,2.976 0,1.644 1.333,2.976 2.977,2.976 C -1.333,2.976 0,1.644 0,0 Z"
           style="fill:none;stroke:#c62027;stroke-width:0.576;stroke-linecap:round;stroke-linejoin:round;stroke-miterlimit:4;stroke-dasharray:none;stroke-opacity:1"
           id="path112" />
      </g>
      <g
         id="g114"
         transform="translate(387.3015,154.9003)">
        <path
           d="m 0,0 c 0,-1.644 -1.333,-2.976 -2.976,-2.976 -1.644,0 -2.977,1.332 -2.977,2.976 0,1.644 1.333,2.976 2.977,2.976 C -1.333,2.976 0,1.644 0,0 Z"
           style="fill:none;stroke:#c62027;stroke-width:0.576;stroke-linecap:round;stroke-linejoin:round;stroke-miterlimit:4;stroke-dasharray:none;stroke-opacity:1"
           id="path116" />
      </g>
      <g
         id="g118"
         transform="translate(352.7756,204.6496)">
        <path
           d="m 0,0 c 0,-1.644 -1.333,-2.976 -2.976,-2.976 -1.644,0 -2.977,1.332 -2.977,2.976 0,1.644 1.333,2.976 2.977,2.976 C -1.333,2.976 0,1.644 0,0 Z"
           style="fill:none;stroke:#c62027;stroke-width:0.576;stroke-linecap:round;stroke-linejoin:round;stroke-miterlimit:4;stroke-dasharray:none;stroke-opacity:1"
           id="path120" />
      </g>
      <g
         id="g122"
         transform="translate(337.4384,101.8022)">
        <path
           d="m 0,0 c 0,-1.644 -1.333,-2.976 -2.976,-2.976 -1.644,0 -2.977,1.332 -2.977,2.976 0,1.644 1.333,2.976 2.977,2.976 C -1.333,2.976 0,1.644 0,0 Z"
           style="fill:none;stroke:#c62027;stroke-width:0.576;stroke-linecap:round;stroke-linejoin:round;stroke-miterlimit:4;stroke-dasharray:none;stroke-opacity:1"
           id="path124" />
      </g>
      <g
         id="g126"
         transform="translate(431.0216,136.4249)">
        <path
           d="m 0,0 -7.361,4.25 c -20.334,11.739 -35.587,21.22 -46.228,29.884 -1.357,1.105 -3.374,0.745 -4.249,-0.771 l -7.234,-12.527 c -0.783,-1.356 -2.516,-1.82 -3.871,-1.037 l -15.512,8.957 c -1.358,0.784 -1.824,2.521 -1.039,3.879 l 13.393,23.194 c 0.384,0.664 0.465,1.451 0.27,2.193 -0.588,2.236 -0.887,4.511 -0.887,6.853 v 140.064 c 0,3.12 -1.709,5.99 -4.453,7.476 l -4.452,2.413 c -33.18,17.981 -73.224,27.145 -122.226,27.952 -1.578,0.026 -2.877,-1.255 -2.877,-2.834 v -10.433 c 0,-1.573 -1.275,-2.848 -2.848,-2.848 h -30.304 c -1.573,0 -2.848,1.275 -2.848,2.848 v 9.209 c 0,1.642 -1.386,2.946 -3.023,2.829 -48.835,-3.477 -105.631,-14.034 -172.397,-32.002 l -6.294,-1.694 c -3.713,-1 -6.294,-4.366 -6.294,-8.212 V -31.379 c 0,-4.697 3.808,-8.504 8.504,-8.504 h 169.996 c 4.695,0 8.5,-3.806 8.5,-8.5 v -35.804 c 0,-4.203 3.072,-7.776 7.227,-8.407 l 7.231,-1.098 c 9.343,-1.416 18.822,-2.473 28.017,-3.499 35.267,-3.932 71.735,-7.999 116.022,-33.555 l 7.367,-4.252 c 1.304,-0.753 2.772,-1.139 4.251,-1.139 0.738,0 1.479,0.096 2.203,0.29 2.179,0.585 4.036,2.011 5.163,3.965 L 3.115,-11.613 C 5.46,-7.546 4.066,-2.348 0,0 Z"
           style="fill:none;stroke:#3ac6f3;stroke-width:0.576;stroke-linecap:round;stroke-linejoin:round;stroke-miterlimit:4;stroke-dasharray:none;stroke-opacity:1"
           id="path128" />
      </g>
    </g>
    <g
       id="g240"
       inkscape:label="iris-switch-plate-choc"
       transform="matrix(0.35277777,0,0,-0.35277777,5,138.89821)"
       style="display:inline">
      <path
         d="m 333.885,235.755 h -39.118 v 39.118 h 39.118 z"
         style="fill:none;stroke:#2965a6;stroke-width:0.283;stroke-linecap:butt;stroke-linejoin:miter;stroke-miterlimit:4;stroke-dasharray:none;stroke-opacity:1"
         id="path242" />
      <path
         d="m 333.885,289.755 h -39.118 v 39.118 h 39.118 z"
         style="fill:none;stroke:#2965a6;stroke-width:0.283;stroke-linecap:butt;stroke-linejoin:miter;stroke-miterlimit:4;stroke-dasharray:none;stroke-opacity:1"
         id="path244" />
      <path
         d="m 333.885,181.755 h -39.118 v 39.118 h 39.118 z"
         style="fill:none;stroke:#2965a6;stroke-width:0.283;stroke-linecap:butt;stroke-linejoin:miter;stroke-miterlimit:4;stroke-dasharray:none;stroke-opacity:1"
         id="path246" />
      <path
         d="m 333.885,127.755 h -39.118 v 39.118 h 39.118 z"
         style="fill:none;stroke:#2965a6;stroke-width:0.283;stroke-linecap:butt;stroke-linejoin:miter;stroke-miterlimit:4;stroke-dasharray:none;stroke-opacity:1"
         id="path248" />
      <path
         d="m 279.885,242.504 h -39.118 v 39.118 h 39.118 z"
         style="fill:none;stroke:#2965a6;stroke-width:0.283;stroke-linecap:butt;stroke-linejoin:miter;stroke-miterlimit:4;stroke-dasharray:none;stroke-opacity:1"
         id="path250" />
      <path
         d="m 279.885,296.504 h -39.118 v 39.118 h 39.118 z"
         style="fill:none;stroke:#2965a6;stroke-width:0.283;stroke-linecap:butt;stroke-linejoin:miter;stroke-miterlimit:4;stroke-dasharray:none;stroke-opacity:1"
         id="path252" />
      <path
         d="m 279.885,134.504 h -39.118 v 39.118 h 39.118 z"
         style="fill:none;stroke:#2965a6;stroke-width:0.283;stroke-linecap:butt;stroke-linejoin:miter;stroke-miterlimit:4;stroke-dasharray:none;stroke-opacity:1"
         id="path254" />
      <path
         d="m 279.885,188.504 h -39.118 v 39.118 h 39.118 z"
         style="fill:none;stroke:#2965a6;stroke-width:0.283;stroke-linecap:butt;stroke-linejoin:miter;stroke-miterlimit:4;stroke-dasharray:none;stroke-opacity:1"
         id="path256" />
      <path
         d="m 225.885,195.254 h -39.118 v 39.118 h 39.118 z"
         style="fill:none;stroke:#2965a6;stroke-width:0.283;stroke-linecap:butt;stroke-linejoin:miter;stroke-miterlimit:4;stroke-dasharray:none;stroke-opacity:1"
         id="path258" />
      <path
         d="m 225.885,249.254 h -39.118 v 39.118 h 39.118 z"
         style="fill:none;stroke:#2965a6;stroke-width:0.283;stroke-linecap:butt;stroke-linejoin:miter;stroke-miterlimit:4;stroke-dasharray:none;stroke-opacity:1"
         id="path260" />
      <path
         d="m 171.886,242.504 h -39.118 v 39.118 h 39.118 z"
         style="fill:none;stroke:#2965a6;stroke-width:0.283;stroke-linecap:butt;stroke-linejoin:miter;stroke-miterlimit:4;stroke-dasharray:none;stroke-opacity:1"
         id="path262" />
      <path
         d="m 171.886,188.504 h -39.118 v 39.118 h 39.118 z"
         style="fill:none;stroke:#2965a6;stroke-width:0.283;stroke-linecap:butt;stroke-linejoin:miter;stroke-miterlimit:4;stroke-dasharray:none;stroke-opacity:1"
         id="path264" />
      <path
         d="M 117.886,229.006 H 78.768 v 39.118 h 39.118 z"
         style="fill:none;stroke:#2965a6;stroke-width:0.283;stroke-linecap:butt;stroke-linejoin:miter;stroke-miterlimit:4;stroke-dasharray:none;stroke-opacity:1"
         id="path266" />
      <path
         d="M 117.886,283.006 H 78.768 v 39.118 h 39.118 z"
         style="fill:none;stroke:#2965a6;stroke-width:0.283;stroke-linecap:butt;stroke-linejoin:miter;stroke-miterlimit:4;stroke-dasharray:none;stroke-opacity:1"
         id="path268" />
      <path
         d="M 117.886,175.006 H 78.768 v 39.118 h 39.118 z"
         style="fill:none;stroke:#2965a6;stroke-width:0.283;stroke-linecap:butt;stroke-linejoin:miter;stroke-miterlimit:4;stroke-dasharray:none;stroke-opacity:1"
         id="path270" />
      <path
         d="m 171.886,296.504 h -39.118 v 39.118 h 39.118 z"
         style="fill:none;stroke:#2965a6;stroke-width:0.283;stroke-linecap:butt;stroke-linejoin:miter;stroke-miterlimit:4;stroke-dasharray:none;stroke-opacity:1"
         id="path272" />
      <path
         d="m 225.885,303.254 h -39.118 v 39.118 h 39.118 z"
         style="fill:none;stroke:#2965a6;stroke-width:0.283;stroke-linecap:butt;stroke-linejoin:miter;stroke-miterlimit:4;stroke-dasharray:none;stroke-opacity:1"
         id="path274" />
      <path
         d="M 63.886,229.006 H 24.768 v 39.118 h 39.118 z"
         style="fill:none;stroke:#2965a6;stroke-width:0.283;stroke-linecap:butt;stroke-linejoin:miter;stroke-miterlimit:4;stroke-dasharray:none;stroke-opacity:1"
         id="path276" />
      <path
         d="M 63.886,175.006 H 24.768 v 39.118 h 39.118 z"
         style="fill:none;stroke:#2965a6;stroke-width:0.283;stroke-linecap:butt;stroke-linejoin:miter;stroke-miterlimit:4;stroke-dasharray:none;stroke-opacity:1"
         id="path278" />
      <path
         d="M 63.886,121.006 H 24.768 v 39.118 h 39.118 z"
         style="fill:none;stroke:#2965a6;stroke-width:0.283;stroke-linecap:butt;stroke-linejoin:miter;stroke-miterlimit:4;stroke-dasharray:none;stroke-opacity:1"
         id="path280" />
      <path
         d="M 117.886,121.006 H 78.768 v 39.118 h 39.118 z"
         style="fill:none;stroke:#2965a6;stroke-width:0.283;stroke-linecap:butt;stroke-linejoin:miter;stroke-miterlimit:4;stroke-dasharray:none;stroke-opacity:1"
         id="path282" />
      <path
         d="m 171.886,134.504 h -39.118 v 39.118 h 39.118 z"
         style="fill:none;stroke:#2965a6;stroke-width:0.283;stroke-linecap:butt;stroke-linejoin:miter;stroke-miterlimit:4;stroke-dasharray:none;stroke-opacity:1"
         id="path284" />
      <path
         d="m 225.885,141.253 h -39.118 v 39.118 h 39.118 z"
         style="fill:none;stroke:#2965a6;stroke-width:0.283;stroke-linecap:butt;stroke-linejoin:miter;stroke-miterlimit:4;stroke-dasharray:none;stroke-opacity:1"
         id="path286" />
      <path
         d="m 252.885,73.755 h -39.118 v 39.118 h 39.118 z"
         style="fill:none;stroke:#2965a6;stroke-width:0.283;stroke-linecap:butt;stroke-linejoin:miter;stroke-miterlimit:4;stroke-dasharray:none;stroke-opacity:1"
         id="path288" />
      <path
         d="m 306.885,66.995 h -39.118 v 39.118 h 39.118 z"
         style="fill:none;stroke:#2965a6;stroke-width:0.283;stroke-linecap:butt;stroke-linejoin:miter;stroke-miterlimit:4;stroke-dasharray:none;stroke-opacity:1"
         id="path290" />
      <g
         id="g292"
         transform="translate(374.7494,70.4135)">
        <path
           d="m 0,0 -19.56,-33.877 -33.877,19.559 19.559,33.878 z"
           style="fill:none;stroke:#2965a6;stroke-width:0.283;stroke-linecap:butt;stroke-linejoin:miter;stroke-miterlimit:4;stroke-dasharray:none;stroke-opacity:1"
           id="path294" />
      </g>
      <g
         id="g296"
         transform="translate(401.7494,117.1791)">
        <path
           d="m 0,0 -19.56,-33.877 -33.877,19.559 19.559,33.877 z"
           style="fill:none;stroke:#2965a6;stroke-width:0.283;stroke-linecap:butt;stroke-linejoin:miter;stroke-miterlimit:4;stroke-dasharray:none;stroke-opacity:1"
           id="path298" />
      </g>
      <path
         d="M 63.886,283.006 H 24.768 v 39.118 h 39.118 z"
         style="fill:none;stroke:#2965a6;stroke-width:0.283;stroke-linecap:butt;stroke-linejoin:miter;stroke-miterlimit:4;stroke-dasharray:none;stroke-opacity:1"
         id="path300" />
      <g
         id="g302">
        <g
           id="g304"
           clip-path="url(#clipPath308)">
          <g
             id="g310"
             transform="translate(14.3383,107.5034)">
            <path
               d="m 0,0 c 0,-1.644 -1.333,-2.976 -2.977,-2.976 -1.644,0 -2.976,1.332 -2.976,2.976 0,1.645 1.332,2.977 2.976,2.977 C -1.333,2.977 0,1.645 0,0 Z"
               style="fill:none;stroke:#c62027;stroke-width:0.576;stroke-linecap:round;stroke-linejoin:round;stroke-miterlimit:4;stroke-dasharray:none;stroke-opacity:1"
               id="path312" />
          </g>
          <g
             id="g314"
             transform="translate(200.7758,54.0239)">
            <path
               d="m 0,0 c 0,-1.644 -1.333,-2.977 -2.977,-2.977 -1.644,0 -2.976,1.333 -2.976,2.977 0,1.644 1.332,2.977 2.976,2.977 C -1.333,2.977 0,1.644 0,0 Z"
               style="fill:none;stroke:#c62027;stroke-width:0.576;stroke-linecap:round;stroke-linejoin:round;stroke-miterlimit:4;stroke-dasharray:none;stroke-opacity:1"
               id="path316" />
          </g>
          <g
             id="g318"
             transform="translate(359.5883,12.1909)">
            <path
               d="m 0,0 c 0,-1.644 -1.333,-2.976 -2.977,-2.976 -1.643,0 -2.976,1.332 -2.976,2.976 0,1.645 1.333,2.977 2.976,2.977 C -1.333,2.977 0,1.645 0,0 Z"
               style="fill:none;stroke:#c62027;stroke-width:0.576;stroke-linecap:round;stroke-linejoin:round;stroke-miterlimit:4;stroke-dasharray:none;stroke-opacity:1"
               id="path320" />
          </g>
          <g
             id="g322"
             transform="translate(426.3168,128.1078)">
            <path
               d="m 0,0 c 0,-1.644 -1.332,-2.977 -2.976,-2.977 -1.644,0 -2.976,1.333 -2.976,2.977 0,1.644 1.332,2.977 2.976,2.977 C -1.332,2.977 0,1.644 0,0 Z"
               style="fill:none;stroke:#c62027;stroke-width:0.576;stroke-linecap:round;stroke-linejoin:round;stroke-miterlimit:4;stroke-dasharray:none;stroke-opacity:1"
               id="path324" />
          </g>
          <g
             id="g326"
             transform="translate(351.5258,340.6601)">
            <path
               d="m 0,0 c 0,-1.644 -1.333,-2.977 -2.977,-2.977 -1.643,0 -2.976,1.333 -2.976,2.977 0,1.644 1.333,2.977 2.976,2.977 C -1.333,2.977 0,1.644 0,0 Z"
               style="fill:none;stroke:#c62027;stroke-width:0.576;stroke-linecap:round;stroke-linejoin:round;stroke-miterlimit:4;stroke-dasharray:none;stroke-opacity:1"
               id="path328" />
          </g>
          <g
             id="g330"
             transform="translate(293.2523,363.8637)">
            <path
               d="m 0,0 c 0,-1.644 -1.333,-2.976 -2.977,-2.976 -1.643,0 -2.976,1.332 -2.976,2.976 0,1.644 1.333,2.977 2.976,2.977 C -1.333,2.977 0,1.644 0,0 Z"
               style="fill:none;stroke:#c62027;stroke-width:0.576;stroke-linecap:round;stroke-linejoin:round;stroke-miterlimit:4;stroke-dasharray:none;stroke-opacity:1"
               id="path332" />
          </g>
          <g
             id="g334"
             transform="translate(151.8588,365.6498)">
            <path
               d="m 0,0 c 0,-1.644 -1.333,-2.977 -2.976,-2.977 -1.644,0 -2.977,1.333 -2.977,2.977 0,1.644 1.333,2.976 2.977,2.976 C -1.333,2.976 0,1.644 0,0 Z"
               style="fill:none;stroke:#c62027;stroke-width:0.576;stroke-linecap:round;stroke-linejoin:round;stroke-miterlimit:4;stroke-dasharray:none;stroke-opacity:1"
               id="path336" />
          </g>
          <g
             id="g338"
             transform="translate(13.7758,335.0663)">
            <path
               d="m 0,0 c 0,-1.644 -1.333,-2.977 -2.977,-2.977 -1.644,0 -2.976,1.333 -2.976,2.977 0,1.644 1.332,2.977 2.976,2.977 C -1.333,2.977 0,1.644 0,0 Z"
               style="fill:none;stroke:#c62027;stroke-width:0.576;stroke-linecap:round;stroke-linejoin:round;stroke-miterlimit:4;stroke-dasharray:none;stroke-opacity:1"
               id="path340" />
          </g>
          <g
             id="g342"
             transform="translate(387.3012,154.9008)">
            <path
               d="m 0,0 c 0,-1.645 -1.332,-2.977 -2.976,-2.977 -1.644,0 -2.976,1.332 -2.976,2.977 0,1.644 1.332,2.976 2.976,2.976 C -1.332,2.976 0,1.644 0,0 Z"
               style="fill:none;stroke:#c62027;stroke-width:0.576;stroke-linecap:round;stroke-linejoin:round;stroke-miterlimit:4;stroke-dasharray:none;stroke-opacity:1"
               id="path344" />
          </g>
          <g
             id="g346"
             transform="translate(352.7758,204.6498)">
            <path
               d="m 0,0 c 0,-1.644 -1.333,-2.977 -2.977,-2.977 -1.643,0 -2.976,1.333 -2.976,2.977 0,1.644 1.333,2.976 2.976,2.976 C -1.333,2.976 0,1.644 0,0 Z"
               style="fill:none;stroke:#c62027;stroke-width:0.576;stroke-linecap:round;stroke-linejoin:round;stroke-miterlimit:4;stroke-dasharray:none;stroke-opacity:1"
               id="path348" />
          </g>
          <g
             id="g350"
             transform="translate(357.4027,0.2875)">
            <path
               d="m 0,0 c -1.479,0 -2.947,0.386 -4.251,1.139 l -7.367,4.252 c -44.286,25.556 -80.755,29.623 -116.023,33.555 -9.194,1.026 -18.673,2.083 -28.016,3.499 l -7.231,1.099 c -4.155,0.631 -7.227,4.203 -7.227,8.406 v 35.804 c 0,4.695 -3.805,8.5 -8.5,8.5 h -169.996 c -4.697,0 -8.504,3.808 -8.504,8.504 V 335.78 c 0,3.846 2.581,7.213 6.294,8.212 l 6.294,1.694 c 83.241,22.402 150.993,33.293 207.129,33.293 52.285,0 94.61,-9.164 129.394,-28.014 l 4.452,-2.412 C -0.809,347.066 0.9,344.196 0.9,341.076 V 201.012 c 0,-19.587 20.162,-34.533 65.358,-60.625 l 7.361,-4.249 c 4.066,-2.348 5.46,-7.547 3.114,-11.615 L 7.366,4.255 C 6.239,2.301 4.382,0.875 2.203,0.29 1.479,0.096 0.738,0 0,0 Z"
               style="fill:none;stroke:#d71f27;stroke-width:0.576;stroke-linecap:round;stroke-linejoin:round;stroke-miterlimit:4;stroke-dasharray:none;stroke-opacity:1"
               id="path352" />
          </g>
        </g>
      </g>
    </g>
    <g
       id="g1258"
       inkscape:label="guide">
      <path
         style="fill:none;stroke:#00ff00;stroke-width:0.237728;stroke-linecap:butt;stroke-linejoin:miter;stroke-miterlimit:4;stroke-dasharray:none;stroke-opacity:1"
         d="M 5,5.118864 H 15"
         id="path411" />
      <path
         style="fill:none;stroke:#00ff00;stroke-width:0.237728;stroke-linecap:butt;stroke-linejoin:miter;stroke-miterlimit:4;stroke-dasharray:none;stroke-opacity:1"
         d="M 5.118864,5 V 15"
         id="path411-3" />
    </g>
  </g>
  <g
     inkscape:label="Edge.Cuts"
     inkscape:groupmode="layer"
     id="g18" />
  <g
     inkscape:label="B.Cu"
     inkscape:groupmode="layer"
     id="g20" />
  <g
     inkscape:label="B.Mask"
     inkscape:groupmode="layer"
     id="g22" />
  <g
     inkscape:label="B.SilkS"
     inkscape:groupmode="layer"
     id="g24" />
  <g
     inkscape:label="F.Cu"
     inkscape:groupmode="layer"
     id="g26" />
  <g
     inkscape:label="F.Mask"
     inkscape:groupmode="layer"
     id="g28" />
  <g
     inkscape:label="F.SilkS"
     inkscape:groupmode="layer"
     id="g30" />
  <g
     inkscape:label="Dwgs.User"
     inkscape:groupmode="layer"
     id="g32" />
  <g
     inkscape:label="Drill"
     inkscape:groupmode="layer"
     id="g34" />
</svg>
