G04 #@! TF.GenerationSoftware,KiCad,Pcbnew,(5.1.10)-1*
G04 #@! TF.CreationDate,2021-05-12T20:45:37+09:00*
G04 #@! TF.ProjectId,iris-switch-plate-choc-svg2shenzhen,69726973-2d73-4776-9974-63682d706c61,rev?*
G04 #@! TF.SameCoordinates,Original*
G04 #@! TF.FileFunction,Soldermask,Bot*
G04 #@! TF.FilePolarity,Negative*
%FSLAX46Y46*%
G04 Gerber Fmt 4.6, Leading zero omitted, Abs format (unit mm)*
G04 Created by KiCad (PCBNEW (5.1.10)-1) date 2021-05-12 20:45:37*
%MOMM*%
%LPD*%
G01*
G04 APERTURE LIST*
%ADD10C,0.010000*%
%ADD11C,0.600000*%
%ADD12C,2.099730*%
G04 APERTURE END LIST*
D10*
G36*
X179797255Y-125820582D02*
G01*
X179851525Y-125850144D01*
X179939333Y-125899120D01*
X180059129Y-125966616D01*
X180209360Y-126051737D01*
X180388476Y-126153590D01*
X180594925Y-126271279D01*
X180827157Y-126403912D01*
X181083620Y-126550592D01*
X181362762Y-126710426D01*
X181663033Y-126882519D01*
X181982881Y-127065978D01*
X182320755Y-127259908D01*
X182675104Y-127463414D01*
X183044377Y-127675602D01*
X183427022Y-127895578D01*
X183821488Y-128122447D01*
X184226224Y-128355316D01*
X184639679Y-128593289D01*
X185060301Y-128835473D01*
X185486540Y-129080972D01*
X185916843Y-129328894D01*
X186349660Y-129578343D01*
X186783440Y-129828425D01*
X187216631Y-130078245D01*
X187647682Y-130326910D01*
X188075042Y-130573526D01*
X188497160Y-130817196D01*
X188912484Y-131057028D01*
X189319464Y-131292127D01*
X189716547Y-131521599D01*
X190102183Y-131744549D01*
X190474820Y-131960083D01*
X190832908Y-132167307D01*
X191174895Y-132365326D01*
X191499229Y-132553246D01*
X191804360Y-132730173D01*
X192088737Y-132895212D01*
X192350808Y-133047468D01*
X192589021Y-133186049D01*
X192801826Y-133310058D01*
X192987672Y-133418603D01*
X193145007Y-133510788D01*
X193272280Y-133585719D01*
X193367939Y-133642503D01*
X193430434Y-133680243D01*
X193458214Y-133698047D01*
X193459505Y-133699189D01*
X193452145Y-133717809D01*
X193426233Y-133768262D01*
X193381625Y-133850797D01*
X193318180Y-133965662D01*
X193235756Y-134113105D01*
X193134212Y-134293374D01*
X193013405Y-134506717D01*
X192873194Y-134753383D01*
X192713436Y-135033618D01*
X192533990Y-135347672D01*
X192334714Y-135695793D01*
X192115466Y-136078228D01*
X191876103Y-136495225D01*
X191616484Y-136947034D01*
X191336468Y-137433901D01*
X191035912Y-137956075D01*
X190714673Y-138513804D01*
X190372612Y-139107337D01*
X190009584Y-139736920D01*
X189625449Y-140402803D01*
X189545593Y-140541195D01*
X189258227Y-141039145D01*
X188976183Y-141527792D01*
X188700201Y-142005855D01*
X188431020Y-142472056D01*
X188169382Y-142925114D01*
X187916024Y-143363751D01*
X187671689Y-143786687D01*
X187437115Y-144192643D01*
X187213043Y-144580338D01*
X187000213Y-144948495D01*
X186799364Y-145295833D01*
X186611236Y-145621073D01*
X186436571Y-145922936D01*
X186276106Y-146200142D01*
X186130583Y-146451412D01*
X186000742Y-146675466D01*
X185887322Y-146871025D01*
X185791063Y-147036810D01*
X185712706Y-147171541D01*
X185652990Y-147273938D01*
X185612655Y-147342723D01*
X185592442Y-147376616D01*
X185590172Y-147380102D01*
X185578183Y-147376681D01*
X185546136Y-147361480D01*
X185493289Y-147334075D01*
X185418900Y-147294040D01*
X185322227Y-147240952D01*
X185202526Y-147174386D01*
X185059058Y-147093917D01*
X184891078Y-146999122D01*
X184697846Y-146889575D01*
X184478619Y-146764852D01*
X184232654Y-146624529D01*
X183959210Y-146468181D01*
X183657545Y-146295384D01*
X183326917Y-146105714D01*
X182966583Y-145898745D01*
X182575801Y-145674054D01*
X182153829Y-145431216D01*
X181699925Y-145169806D01*
X181213348Y-144889401D01*
X180693354Y-144589575D01*
X180139201Y-144269904D01*
X179550149Y-143929964D01*
X178925453Y-143569331D01*
X178725171Y-143453685D01*
X178093790Y-143089052D01*
X177498327Y-142745054D01*
X176937998Y-142421233D01*
X176412015Y-142117132D01*
X175919594Y-141832291D01*
X175459949Y-141566254D01*
X175032294Y-141318562D01*
X174635844Y-141088757D01*
X174269814Y-140876381D01*
X173933417Y-140680976D01*
X173625868Y-140502084D01*
X173346381Y-140339247D01*
X173094171Y-140192006D01*
X172868453Y-140059904D01*
X172668439Y-139942483D01*
X172493346Y-139839285D01*
X172342388Y-139749851D01*
X172214778Y-139673724D01*
X172109732Y-139610446D01*
X172026463Y-139559558D01*
X171964186Y-139520602D01*
X171922115Y-139493121D01*
X171899466Y-139476656D01*
X171894776Y-139471166D01*
X171906137Y-139450550D01*
X171937764Y-139394857D01*
X171988761Y-139305643D01*
X172058228Y-139184464D01*
X172145268Y-139032876D01*
X172248982Y-138852434D01*
X172315702Y-138736439D01*
X174660656Y-138736439D01*
X174678190Y-138749198D01*
X174730637Y-138781987D01*
X174816200Y-138833767D01*
X174933081Y-138903501D01*
X175079482Y-138990148D01*
X175253605Y-139092672D01*
X175453653Y-139210034D01*
X175677826Y-139341196D01*
X175924328Y-139485120D01*
X176191361Y-139640767D01*
X176477126Y-139807098D01*
X176779825Y-139983077D01*
X177097660Y-140167664D01*
X177428834Y-140359821D01*
X177771549Y-140558510D01*
X178124007Y-140762692D01*
X178484409Y-140971330D01*
X178850957Y-141183385D01*
X179221855Y-141397819D01*
X179595303Y-141613594D01*
X179969504Y-141829670D01*
X180342660Y-142045011D01*
X180712973Y-142258577D01*
X181078645Y-142469331D01*
X181437878Y-142676234D01*
X181788874Y-142878248D01*
X182129835Y-143074335D01*
X182458963Y-143263456D01*
X182774460Y-143444573D01*
X183074529Y-143616647D01*
X183357371Y-143778642D01*
X183621189Y-143929518D01*
X183864183Y-144068236D01*
X184084558Y-144193760D01*
X184280513Y-144305050D01*
X184450253Y-144401068D01*
X184591977Y-144480776D01*
X184703890Y-144543135D01*
X184784192Y-144587108D01*
X184831086Y-144611657D01*
X184843309Y-144616658D01*
X184855211Y-144597104D01*
X184887412Y-144542364D01*
X184939055Y-144453920D01*
X185009281Y-144333254D01*
X185097233Y-144181848D01*
X185202054Y-144001183D01*
X185322886Y-143792741D01*
X185458871Y-143558004D01*
X185609152Y-143298455D01*
X185772871Y-143015574D01*
X185949171Y-142710844D01*
X186137195Y-142385746D01*
X186336084Y-142041763D01*
X186544980Y-141680375D01*
X186763028Y-141303066D01*
X186989368Y-140911316D01*
X187223144Y-140506608D01*
X187463497Y-140090423D01*
X187709571Y-139664244D01*
X187790811Y-139523523D01*
X188038382Y-139094626D01*
X188280361Y-138675315D01*
X188515898Y-138267068D01*
X188744144Y-137871360D01*
X188964248Y-137489670D01*
X189175360Y-137123473D01*
X189376631Y-136774245D01*
X189567210Y-136443463D01*
X189746247Y-136132604D01*
X189912893Y-135843144D01*
X190066297Y-135576560D01*
X190205609Y-135334328D01*
X190329980Y-135117925D01*
X190438559Y-134928827D01*
X190530497Y-134768510D01*
X190604943Y-134638452D01*
X190661048Y-134540128D01*
X190697961Y-134475016D01*
X190714833Y-134444592D01*
X190715856Y-134442414D01*
X190697319Y-134431529D01*
X190643612Y-134400341D01*
X190556227Y-134349711D01*
X190436655Y-134280502D01*
X190286389Y-134193575D01*
X190106921Y-134089792D01*
X189899742Y-133970016D01*
X189666345Y-133835109D01*
X189408221Y-133685932D01*
X189126863Y-133523349D01*
X188823762Y-133348220D01*
X188500410Y-133161409D01*
X188158300Y-132963778D01*
X187798923Y-132756187D01*
X187423771Y-132539501D01*
X187034336Y-132314580D01*
X186632110Y-132082287D01*
X186218585Y-131843483D01*
X185795253Y-131599032D01*
X185736417Y-131565059D01*
X185310403Y-131319066D01*
X184893252Y-131078184D01*
X184486500Y-130843301D01*
X184091683Y-130615304D01*
X183710339Y-130395081D01*
X183344003Y-130183520D01*
X182994214Y-129981507D01*
X182662507Y-129789932D01*
X182350419Y-129609680D01*
X182059487Y-129441641D01*
X181791247Y-129286700D01*
X181547237Y-129145747D01*
X181328993Y-129019669D01*
X181138052Y-128909352D01*
X180975950Y-128815686D01*
X180844225Y-128739557D01*
X180744412Y-128681852D01*
X180678049Y-128643461D01*
X180646672Y-128625269D01*
X180645617Y-128624654D01*
X180528984Y-128556445D01*
X177597617Y-133633619D01*
X177349844Y-134062823D01*
X177107593Y-134482573D01*
X176871719Y-134891385D01*
X176643075Y-135287775D01*
X176422515Y-135670259D01*
X176210895Y-136037353D01*
X176009068Y-136387573D01*
X175817888Y-136719433D01*
X175638210Y-137031452D01*
X175470887Y-137322143D01*
X175316775Y-137590023D01*
X175176727Y-137833607D01*
X175051597Y-138051412D01*
X174942240Y-138241954D01*
X174849511Y-138403748D01*
X174774262Y-138535309D01*
X174717349Y-138635155D01*
X174679625Y-138701800D01*
X174661946Y-138733761D01*
X174660656Y-138736439D01*
X172315702Y-138736439D01*
X172368474Y-138644696D01*
X172502846Y-138411215D01*
X172651198Y-138153548D01*
X172812634Y-137873252D01*
X172986256Y-137571881D01*
X173171165Y-137250991D01*
X173366465Y-136912139D01*
X173571256Y-136556880D01*
X173784641Y-136186769D01*
X174005723Y-135803364D01*
X174233602Y-135408218D01*
X174467383Y-135002889D01*
X174706166Y-134588933D01*
X174949053Y-134167904D01*
X175195148Y-133741359D01*
X175443551Y-133310853D01*
X175693366Y-132877942D01*
X175943693Y-132444183D01*
X176193636Y-132011131D01*
X176442297Y-131580341D01*
X176688777Y-131153370D01*
X176932178Y-130731773D01*
X177171604Y-130317106D01*
X177406155Y-129910925D01*
X177634935Y-129514786D01*
X177857044Y-129130245D01*
X178071586Y-128758857D01*
X178277663Y-128402178D01*
X178474375Y-128061763D01*
X178660827Y-127739170D01*
X178836119Y-127435953D01*
X178999355Y-127153669D01*
X179149635Y-126893872D01*
X179286063Y-126658120D01*
X179407739Y-126447967D01*
X179513767Y-126264970D01*
X179603249Y-126110684D01*
X179675286Y-125986666D01*
X179728982Y-125894470D01*
X179763437Y-125835654D01*
X179777754Y-125811771D01*
X179778074Y-125811329D01*
X179797255Y-125820582D01*
G37*
X179797255Y-125820582D02*
X179851525Y-125850144D01*
X179939333Y-125899120D01*
X180059129Y-125966616D01*
X180209360Y-126051737D01*
X180388476Y-126153590D01*
X180594925Y-126271279D01*
X180827157Y-126403912D01*
X181083620Y-126550592D01*
X181362762Y-126710426D01*
X181663033Y-126882519D01*
X181982881Y-127065978D01*
X182320755Y-127259908D01*
X182675104Y-127463414D01*
X183044377Y-127675602D01*
X183427022Y-127895578D01*
X183821488Y-128122447D01*
X184226224Y-128355316D01*
X184639679Y-128593289D01*
X185060301Y-128835473D01*
X185486540Y-129080972D01*
X185916843Y-129328894D01*
X186349660Y-129578343D01*
X186783440Y-129828425D01*
X187216631Y-130078245D01*
X187647682Y-130326910D01*
X188075042Y-130573526D01*
X188497160Y-130817196D01*
X188912484Y-131057028D01*
X189319464Y-131292127D01*
X189716547Y-131521599D01*
X190102183Y-131744549D01*
X190474820Y-131960083D01*
X190832908Y-132167307D01*
X191174895Y-132365326D01*
X191499229Y-132553246D01*
X191804360Y-132730173D01*
X192088737Y-132895212D01*
X192350808Y-133047468D01*
X192589021Y-133186049D01*
X192801826Y-133310058D01*
X192987672Y-133418603D01*
X193145007Y-133510788D01*
X193272280Y-133585719D01*
X193367939Y-133642503D01*
X193430434Y-133680243D01*
X193458214Y-133698047D01*
X193459505Y-133699189D01*
X193452145Y-133717809D01*
X193426233Y-133768262D01*
X193381625Y-133850797D01*
X193318180Y-133965662D01*
X193235756Y-134113105D01*
X193134212Y-134293374D01*
X193013405Y-134506717D01*
X192873194Y-134753383D01*
X192713436Y-135033618D01*
X192533990Y-135347672D01*
X192334714Y-135695793D01*
X192115466Y-136078228D01*
X191876103Y-136495225D01*
X191616484Y-136947034D01*
X191336468Y-137433901D01*
X191035912Y-137956075D01*
X190714673Y-138513804D01*
X190372612Y-139107337D01*
X190009584Y-139736920D01*
X189625449Y-140402803D01*
X189545593Y-140541195D01*
X189258227Y-141039145D01*
X188976183Y-141527792D01*
X188700201Y-142005855D01*
X188431020Y-142472056D01*
X188169382Y-142925114D01*
X187916024Y-143363751D01*
X187671689Y-143786687D01*
X187437115Y-144192643D01*
X187213043Y-144580338D01*
X187000213Y-144948495D01*
X186799364Y-145295833D01*
X186611236Y-145621073D01*
X186436571Y-145922936D01*
X186276106Y-146200142D01*
X186130583Y-146451412D01*
X186000742Y-146675466D01*
X185887322Y-146871025D01*
X185791063Y-147036810D01*
X185712706Y-147171541D01*
X185652990Y-147273938D01*
X185612655Y-147342723D01*
X185592442Y-147376616D01*
X185590172Y-147380102D01*
X185578183Y-147376681D01*
X185546136Y-147361480D01*
X185493289Y-147334075D01*
X185418900Y-147294040D01*
X185322227Y-147240952D01*
X185202526Y-147174386D01*
X185059058Y-147093917D01*
X184891078Y-146999122D01*
X184697846Y-146889575D01*
X184478619Y-146764852D01*
X184232654Y-146624529D01*
X183959210Y-146468181D01*
X183657545Y-146295384D01*
X183326917Y-146105714D01*
X182966583Y-145898745D01*
X182575801Y-145674054D01*
X182153829Y-145431216D01*
X181699925Y-145169806D01*
X181213348Y-144889401D01*
X180693354Y-144589575D01*
X180139201Y-144269904D01*
X179550149Y-143929964D01*
X178925453Y-143569331D01*
X178725171Y-143453685D01*
X178093790Y-143089052D01*
X177498327Y-142745054D01*
X176937998Y-142421233D01*
X176412015Y-142117132D01*
X175919594Y-141832291D01*
X175459949Y-141566254D01*
X175032294Y-141318562D01*
X174635844Y-141088757D01*
X174269814Y-140876381D01*
X173933417Y-140680976D01*
X173625868Y-140502084D01*
X173346381Y-140339247D01*
X173094171Y-140192006D01*
X172868453Y-140059904D01*
X172668439Y-139942483D01*
X172493346Y-139839285D01*
X172342388Y-139749851D01*
X172214778Y-139673724D01*
X172109732Y-139610446D01*
X172026463Y-139559558D01*
X171964186Y-139520602D01*
X171922115Y-139493121D01*
X171899466Y-139476656D01*
X171894776Y-139471166D01*
X171906137Y-139450550D01*
X171937764Y-139394857D01*
X171988761Y-139305643D01*
X172058228Y-139184464D01*
X172145268Y-139032876D01*
X172248982Y-138852434D01*
X172315702Y-138736439D01*
X174660656Y-138736439D01*
X174678190Y-138749198D01*
X174730637Y-138781987D01*
X174816200Y-138833767D01*
X174933081Y-138903501D01*
X175079482Y-138990148D01*
X175253605Y-139092672D01*
X175453653Y-139210034D01*
X175677826Y-139341196D01*
X175924328Y-139485120D01*
X176191361Y-139640767D01*
X176477126Y-139807098D01*
X176779825Y-139983077D01*
X177097660Y-140167664D01*
X177428834Y-140359821D01*
X177771549Y-140558510D01*
X178124007Y-140762692D01*
X178484409Y-140971330D01*
X178850957Y-141183385D01*
X179221855Y-141397819D01*
X179595303Y-141613594D01*
X179969504Y-141829670D01*
X180342660Y-142045011D01*
X180712973Y-142258577D01*
X181078645Y-142469331D01*
X181437878Y-142676234D01*
X181788874Y-142878248D01*
X182129835Y-143074335D01*
X182458963Y-143263456D01*
X182774460Y-143444573D01*
X183074529Y-143616647D01*
X183357371Y-143778642D01*
X183621189Y-143929518D01*
X183864183Y-144068236D01*
X184084558Y-144193760D01*
X184280513Y-144305050D01*
X184450253Y-144401068D01*
X184591977Y-144480776D01*
X184703890Y-144543135D01*
X184784192Y-144587108D01*
X184831086Y-144611657D01*
X184843309Y-144616658D01*
X184855211Y-144597104D01*
X184887412Y-144542364D01*
X184939055Y-144453920D01*
X185009281Y-144333254D01*
X185097233Y-144181848D01*
X185202054Y-144001183D01*
X185322886Y-143792741D01*
X185458871Y-143558004D01*
X185609152Y-143298455D01*
X185772871Y-143015574D01*
X185949171Y-142710844D01*
X186137195Y-142385746D01*
X186336084Y-142041763D01*
X186544980Y-141680375D01*
X186763028Y-141303066D01*
X186989368Y-140911316D01*
X187223144Y-140506608D01*
X187463497Y-140090423D01*
X187709571Y-139664244D01*
X187790811Y-139523523D01*
X188038382Y-139094626D01*
X188280361Y-138675315D01*
X188515898Y-138267068D01*
X188744144Y-137871360D01*
X188964248Y-137489670D01*
X189175360Y-137123473D01*
X189376631Y-136774245D01*
X189567210Y-136443463D01*
X189746247Y-136132604D01*
X189912893Y-135843144D01*
X190066297Y-135576560D01*
X190205609Y-135334328D01*
X190329980Y-135117925D01*
X190438559Y-134928827D01*
X190530497Y-134768510D01*
X190604943Y-134638452D01*
X190661048Y-134540128D01*
X190697961Y-134475016D01*
X190714833Y-134444592D01*
X190715856Y-134442414D01*
X190697319Y-134431529D01*
X190643612Y-134400341D01*
X190556227Y-134349711D01*
X190436655Y-134280502D01*
X190286389Y-134193575D01*
X190106921Y-134089792D01*
X189899742Y-133970016D01*
X189666345Y-133835109D01*
X189408221Y-133685932D01*
X189126863Y-133523349D01*
X188823762Y-133348220D01*
X188500410Y-133161409D01*
X188158300Y-132963778D01*
X187798923Y-132756187D01*
X187423771Y-132539501D01*
X187034336Y-132314580D01*
X186632110Y-132082287D01*
X186218585Y-131843483D01*
X185795253Y-131599032D01*
X185736417Y-131565059D01*
X185310403Y-131319066D01*
X184893252Y-131078184D01*
X184486500Y-130843301D01*
X184091683Y-130615304D01*
X183710339Y-130395081D01*
X183344003Y-130183520D01*
X182994214Y-129981507D01*
X182662507Y-129789932D01*
X182350419Y-129609680D01*
X182059487Y-129441641D01*
X181791247Y-129286700D01*
X181547237Y-129145747D01*
X181328993Y-129019669D01*
X181138052Y-128909352D01*
X180975950Y-128815686D01*
X180844225Y-128739557D01*
X180744412Y-128681852D01*
X180678049Y-128643461D01*
X180646672Y-128625269D01*
X180645617Y-128624654D01*
X180528984Y-128556445D01*
X177597617Y-133633619D01*
X177349844Y-134062823D01*
X177107593Y-134482573D01*
X176871719Y-134891385D01*
X176643075Y-135287775D01*
X176422515Y-135670259D01*
X176210895Y-136037353D01*
X176009068Y-136387573D01*
X175817888Y-136719433D01*
X175638210Y-137031452D01*
X175470887Y-137322143D01*
X175316775Y-137590023D01*
X175176727Y-137833607D01*
X175051597Y-138051412D01*
X174942240Y-138241954D01*
X174849511Y-138403748D01*
X174774262Y-138535309D01*
X174717349Y-138635155D01*
X174679625Y-138701800D01*
X174661946Y-138733761D01*
X174660656Y-138736439D01*
X172315702Y-138736439D01*
X172368474Y-138644696D01*
X172502846Y-138411215D01*
X172651198Y-138153548D01*
X172812634Y-137873252D01*
X172986256Y-137571881D01*
X173171165Y-137250991D01*
X173366465Y-136912139D01*
X173571256Y-136556880D01*
X173784641Y-136186769D01*
X174005723Y-135803364D01*
X174233602Y-135408218D01*
X174467383Y-135002889D01*
X174706166Y-134588933D01*
X174949053Y-134167904D01*
X175195148Y-133741359D01*
X175443551Y-133310853D01*
X175693366Y-132877942D01*
X175943693Y-132444183D01*
X176193636Y-132011131D01*
X176442297Y-131580341D01*
X176688777Y-131153370D01*
X176932178Y-130731773D01*
X177171604Y-130317106D01*
X177406155Y-129910925D01*
X177634935Y-129514786D01*
X177857044Y-129130245D01*
X178071586Y-128758857D01*
X178277663Y-128402178D01*
X178474375Y-128061763D01*
X178660827Y-127739170D01*
X178836119Y-127435953D01*
X178999355Y-127153669D01*
X179149635Y-126893872D01*
X179286063Y-126658120D01*
X179407739Y-126447967D01*
X179513767Y-126264970D01*
X179603249Y-126110684D01*
X179675286Y-125986666D01*
X179728982Y-125894470D01*
X179763437Y-125835654D01*
X179777754Y-125811771D01*
X179778074Y-125811329D01*
X179797255Y-125820582D01*
G36*
X169173500Y-136296166D02*
G01*
X153362000Y-136296166D01*
X153362000Y-122495500D01*
X155372834Y-122495500D01*
X155372834Y-134264166D01*
X167162667Y-134264166D01*
X167162667Y-122495500D01*
X155372834Y-122495500D01*
X153362000Y-122495500D01*
X153362000Y-120463500D01*
X169173500Y-120463500D01*
X169173500Y-136296166D01*
G37*
X169173500Y-136296166D02*
X153362000Y-136296166D01*
X153362000Y-122495500D01*
X155372834Y-122495500D01*
X155372834Y-134264166D01*
X167162667Y-134264166D01*
X167162667Y-122495500D01*
X155372834Y-122495500D01*
X153362000Y-122495500D01*
X153362000Y-120463500D01*
X169173500Y-120463500D01*
X169173500Y-136296166D01*
G36*
X150123500Y-133904333D02*
G01*
X134312000Y-133904333D01*
X134312000Y-120103666D01*
X136344000Y-120103666D01*
X136344000Y-131872333D01*
X148112667Y-131872333D01*
X148112667Y-120103666D01*
X136344000Y-120103666D01*
X134312000Y-120103666D01*
X134312000Y-118071666D01*
X150123500Y-118071666D01*
X150123500Y-133904333D01*
G37*
X150123500Y-133904333D02*
X134312000Y-133904333D01*
X134312000Y-120103666D01*
X136344000Y-120103666D01*
X136344000Y-131872333D01*
X148112667Y-131872333D01*
X148112667Y-120103666D01*
X136344000Y-120103666D01*
X134312000Y-120103666D01*
X134312000Y-118071666D01*
X150123500Y-118071666D01*
X150123500Y-133904333D01*
G36*
X189335301Y-109325409D02*
G01*
X189390559Y-109355655D01*
X189479912Y-109405624D01*
X189602085Y-109474582D01*
X189755800Y-109561797D01*
X189939781Y-109666535D01*
X190152751Y-109788064D01*
X190393433Y-109925651D01*
X190660551Y-110078563D01*
X190952827Y-110246067D01*
X191268986Y-110427431D01*
X191607750Y-110621922D01*
X191967842Y-110828806D01*
X192347987Y-111047351D01*
X192746906Y-111276825D01*
X193163324Y-111516493D01*
X193595964Y-111765624D01*
X194043548Y-112023485D01*
X194504800Y-112289342D01*
X194978444Y-112562464D01*
X195463203Y-112842116D01*
X195957799Y-113127567D01*
X196169546Y-113249812D01*
X196783915Y-113604566D01*
X197362539Y-113938761D01*
X197906364Y-114252952D01*
X198416340Y-114547689D01*
X198893414Y-114823528D01*
X199338534Y-115081020D01*
X199752647Y-115320719D01*
X200136702Y-115543178D01*
X200491645Y-115748950D01*
X200818426Y-115938588D01*
X201117992Y-116112646D01*
X201391291Y-116271675D01*
X201639270Y-116416231D01*
X201862878Y-116546864D01*
X202063062Y-116664129D01*
X202240771Y-116768579D01*
X202396951Y-116860766D01*
X202532551Y-116941245D01*
X202648519Y-117010567D01*
X202745802Y-117069286D01*
X202825348Y-117117955D01*
X202888106Y-117157128D01*
X202935023Y-117187356D01*
X202967046Y-117209194D01*
X202985125Y-117223195D01*
X202990225Y-117229846D01*
X202978693Y-117252162D01*
X202946910Y-117309418D01*
X202895771Y-117400065D01*
X202826174Y-117522550D01*
X202739015Y-117675322D01*
X202635190Y-117856831D01*
X202515596Y-118065524D01*
X202381129Y-118299851D01*
X202232686Y-118558261D01*
X202071163Y-118839201D01*
X201897457Y-119141122D01*
X201712464Y-119462470D01*
X201517080Y-119801696D01*
X201312203Y-120157248D01*
X201098728Y-120527575D01*
X200877552Y-120911125D01*
X200649572Y-121306347D01*
X200415684Y-121711691D01*
X200176784Y-122125604D01*
X199933770Y-122546535D01*
X199687536Y-122972933D01*
X199438981Y-123403248D01*
X199189000Y-123835927D01*
X198938490Y-124269419D01*
X198688347Y-124702173D01*
X198439469Y-125132638D01*
X198192750Y-125559263D01*
X197949088Y-125980496D01*
X197709380Y-126394786D01*
X197474521Y-126800582D01*
X197245408Y-127196332D01*
X197022938Y-127580486D01*
X196808007Y-127951491D01*
X196601512Y-128307797D01*
X196404349Y-128647853D01*
X196217414Y-128970106D01*
X196041605Y-129273007D01*
X195877817Y-129555003D01*
X195726947Y-129814544D01*
X195589891Y-130050077D01*
X195467547Y-130260053D01*
X195360810Y-130442919D01*
X195270577Y-130597124D01*
X195197744Y-130721117D01*
X195143208Y-130813348D01*
X195107865Y-130872263D01*
X195092612Y-130896313D01*
X195092084Y-130896823D01*
X195072409Y-130886280D01*
X195017365Y-130855288D01*
X194928231Y-130804584D01*
X194806287Y-130734906D01*
X194652814Y-130646991D01*
X194469092Y-130541577D01*
X194256400Y-130419400D01*
X194016019Y-130281199D01*
X193749229Y-130127710D01*
X193457311Y-129959672D01*
X193141544Y-129777822D01*
X192803208Y-129582897D01*
X192443585Y-129375635D01*
X192063953Y-129156773D01*
X191665594Y-128927048D01*
X191249786Y-128687198D01*
X190817811Y-128437961D01*
X190370949Y-128180073D01*
X189910479Y-127914273D01*
X189437682Y-127641298D01*
X188953839Y-127361885D01*
X188460228Y-127076772D01*
X188284285Y-126975131D01*
X187787198Y-126687947D01*
X187299299Y-126406050D01*
X186821874Y-126130183D01*
X186356211Y-125861091D01*
X185903598Y-125599518D01*
X185465321Y-125346209D01*
X185042667Y-125101909D01*
X184636925Y-124867361D01*
X184249381Y-124643311D01*
X183881323Y-124430503D01*
X183534037Y-124229680D01*
X183208812Y-124041588D01*
X182906935Y-123866972D01*
X182629692Y-123706575D01*
X182378371Y-123561142D01*
X182154260Y-123431417D01*
X181958645Y-123318146D01*
X181792815Y-123222072D01*
X181658056Y-123143940D01*
X181555655Y-123084494D01*
X181486901Y-123044479D01*
X181453079Y-123024639D01*
X181449766Y-123022622D01*
X181445726Y-123019632D01*
X181442614Y-123015630D01*
X181441056Y-123009517D01*
X181441676Y-123000189D01*
X181445101Y-122986547D01*
X181451954Y-122967488D01*
X181462863Y-122941911D01*
X181478451Y-122908715D01*
X181499344Y-122866798D01*
X181526167Y-122815058D01*
X181559546Y-122752395D01*
X181600105Y-122677706D01*
X181648471Y-122589891D01*
X181705268Y-122487847D01*
X181771121Y-122370474D01*
X181829907Y-122266338D01*
X184189853Y-122266338D01*
X184219267Y-122283924D01*
X184283019Y-122321276D01*
X184379308Y-122377356D01*
X184506331Y-122451125D01*
X184662287Y-122541544D01*
X184845374Y-122647575D01*
X185053790Y-122768177D01*
X185285733Y-122902312D01*
X185539402Y-123048942D01*
X185812993Y-123207027D01*
X186104707Y-123375529D01*
X186412740Y-123553408D01*
X186735291Y-123739626D01*
X187070558Y-123933144D01*
X187416738Y-124132923D01*
X187772031Y-124337924D01*
X188134635Y-124547108D01*
X188502746Y-124759436D01*
X188874565Y-124973869D01*
X189248287Y-125189368D01*
X189622113Y-125404895D01*
X189994240Y-125619411D01*
X190362865Y-125831876D01*
X190726188Y-126041252D01*
X191082406Y-126246500D01*
X191429718Y-126446581D01*
X191766321Y-126640455D01*
X192090414Y-126827085D01*
X192400194Y-127005431D01*
X192693861Y-127174454D01*
X192969611Y-127333116D01*
X193225644Y-127480377D01*
X193460157Y-127615199D01*
X193671348Y-127736542D01*
X193857416Y-127843369D01*
X194016559Y-127934639D01*
X194146974Y-128009314D01*
X194246861Y-128066355D01*
X194314416Y-128104723D01*
X194347839Y-128123379D01*
X194351250Y-128125090D01*
X194363482Y-128107018D01*
X194395994Y-128053742D01*
X194447926Y-127966739D01*
X194518422Y-127847483D01*
X194606624Y-127697451D01*
X194711673Y-127518118D01*
X194832712Y-127310959D01*
X194968883Y-127077451D01*
X195119328Y-126819068D01*
X195283189Y-126537286D01*
X195459608Y-126233581D01*
X195647728Y-125909428D01*
X195846690Y-125566303D01*
X196055636Y-125205682D01*
X196273709Y-124829039D01*
X196500051Y-124437851D01*
X196733803Y-124033592D01*
X196974109Y-123617740D01*
X197220109Y-123191768D01*
X197303050Y-123048091D01*
X197550691Y-122618985D01*
X197792762Y-122199386D01*
X198028413Y-121790775D01*
X198256791Y-121394632D01*
X198477045Y-121012438D01*
X198688324Y-120645675D01*
X198889776Y-120295823D01*
X199080550Y-119964364D01*
X199259794Y-119652779D01*
X199426658Y-119362548D01*
X199580289Y-119095153D01*
X199719836Y-118852075D01*
X199844448Y-118634795D01*
X199953274Y-118444794D01*
X200045461Y-118283553D01*
X200120159Y-118152552D01*
X200176516Y-118053274D01*
X200213681Y-117987199D01*
X200230802Y-117955808D01*
X200231908Y-117953311D01*
X200213666Y-117941385D01*
X200160227Y-117909165D01*
X200073065Y-117857509D01*
X199953655Y-117787272D01*
X199803470Y-117699311D01*
X199623987Y-117594482D01*
X199416678Y-117473641D01*
X199183018Y-117337644D01*
X198924483Y-117187348D01*
X198642545Y-117023608D01*
X198338681Y-116847282D01*
X198014364Y-116659224D01*
X197671069Y-116460292D01*
X197310270Y-116251341D01*
X196933442Y-116033228D01*
X196542060Y-115806808D01*
X196137597Y-115572939D01*
X195721528Y-115332476D01*
X195295328Y-115086276D01*
X195142980Y-114998298D01*
X194577866Y-114672076D01*
X194048790Y-114366854D01*
X193555210Y-114082321D01*
X193096587Y-113818170D01*
X192672378Y-113574091D01*
X192282041Y-113349775D01*
X191925037Y-113144914D01*
X191600822Y-112959199D01*
X191308855Y-112792320D01*
X191048596Y-112643969D01*
X190819503Y-112513836D01*
X190621034Y-112401614D01*
X190452648Y-112306994D01*
X190313803Y-112229665D01*
X190203959Y-112169320D01*
X190122573Y-112125649D01*
X190069105Y-112098344D01*
X190043012Y-112087096D01*
X190040113Y-112087034D01*
X190028326Y-112107354D01*
X189996221Y-112162846D01*
X189944659Y-112252023D01*
X189874496Y-112373400D01*
X189786591Y-112525491D01*
X189681803Y-112706811D01*
X189560991Y-112915873D01*
X189425012Y-113151193D01*
X189274724Y-113411284D01*
X189110988Y-113694662D01*
X188934659Y-113999839D01*
X188746598Y-114325331D01*
X188547663Y-114669653D01*
X188338712Y-115031317D01*
X188120603Y-115408840D01*
X187894194Y-115800734D01*
X187660345Y-116205515D01*
X187419914Y-116621697D01*
X187173759Y-117047794D01*
X187095844Y-117182666D01*
X186803072Y-117689654D01*
X186523081Y-118174895D01*
X186256372Y-118637511D01*
X186003446Y-119076627D01*
X185764802Y-119491368D01*
X185540942Y-119880858D01*
X185332366Y-120244220D01*
X185139575Y-120580581D01*
X184963070Y-120889062D01*
X184803350Y-121168789D01*
X184660917Y-121418887D01*
X184536271Y-121638478D01*
X184429913Y-121826689D01*
X184342344Y-121982642D01*
X184274063Y-122105462D01*
X184225573Y-122194273D01*
X184197372Y-122248200D01*
X184189853Y-122266338D01*
X181829907Y-122266338D01*
X181846656Y-122236670D01*
X181932498Y-122085334D01*
X182029273Y-121915363D01*
X182137605Y-121725657D01*
X182258119Y-121515114D01*
X182391442Y-121282633D01*
X182538197Y-121027112D01*
X182699011Y-120747450D01*
X182874509Y-120442545D01*
X183065316Y-120111297D01*
X183272057Y-119752602D01*
X183495358Y-119365361D01*
X183735843Y-118948471D01*
X183994138Y-118500831D01*
X184270868Y-118021340D01*
X184566659Y-117508896D01*
X184882136Y-116962398D01*
X185217923Y-116380744D01*
X185346605Y-116157844D01*
X185634426Y-115659370D01*
X185916932Y-115170273D01*
X186193383Y-114691826D01*
X186463040Y-114225303D01*
X186725165Y-113771979D01*
X186979019Y-113333126D01*
X187223861Y-112910019D01*
X187458955Y-112503932D01*
X187683559Y-112116138D01*
X187896937Y-111747913D01*
X188098348Y-111400529D01*
X188287054Y-111075262D01*
X188462316Y-110773383D01*
X188623394Y-110496169D01*
X188769550Y-110244892D01*
X188900046Y-110020827D01*
X189014141Y-109825247D01*
X189111097Y-109659427D01*
X189190175Y-109524640D01*
X189250636Y-109422160D01*
X189291741Y-109353262D01*
X189312751Y-109319219D01*
X189315417Y-109315617D01*
X189335301Y-109325409D01*
G37*
X189335301Y-109325409D02*
X189390559Y-109355655D01*
X189479912Y-109405624D01*
X189602085Y-109474582D01*
X189755800Y-109561797D01*
X189939781Y-109666535D01*
X190152751Y-109788064D01*
X190393433Y-109925651D01*
X190660551Y-110078563D01*
X190952827Y-110246067D01*
X191268986Y-110427431D01*
X191607750Y-110621922D01*
X191967842Y-110828806D01*
X192347987Y-111047351D01*
X192746906Y-111276825D01*
X193163324Y-111516493D01*
X193595964Y-111765624D01*
X194043548Y-112023485D01*
X194504800Y-112289342D01*
X194978444Y-112562464D01*
X195463203Y-112842116D01*
X195957799Y-113127567D01*
X196169546Y-113249812D01*
X196783915Y-113604566D01*
X197362539Y-113938761D01*
X197906364Y-114252952D01*
X198416340Y-114547689D01*
X198893414Y-114823528D01*
X199338534Y-115081020D01*
X199752647Y-115320719D01*
X200136702Y-115543178D01*
X200491645Y-115748950D01*
X200818426Y-115938588D01*
X201117992Y-116112646D01*
X201391291Y-116271675D01*
X201639270Y-116416231D01*
X201862878Y-116546864D01*
X202063062Y-116664129D01*
X202240771Y-116768579D01*
X202396951Y-116860766D01*
X202532551Y-116941245D01*
X202648519Y-117010567D01*
X202745802Y-117069286D01*
X202825348Y-117117955D01*
X202888106Y-117157128D01*
X202935023Y-117187356D01*
X202967046Y-117209194D01*
X202985125Y-117223195D01*
X202990225Y-117229846D01*
X202978693Y-117252162D01*
X202946910Y-117309418D01*
X202895771Y-117400065D01*
X202826174Y-117522550D01*
X202739015Y-117675322D01*
X202635190Y-117856831D01*
X202515596Y-118065524D01*
X202381129Y-118299851D01*
X202232686Y-118558261D01*
X202071163Y-118839201D01*
X201897457Y-119141122D01*
X201712464Y-119462470D01*
X201517080Y-119801696D01*
X201312203Y-120157248D01*
X201098728Y-120527575D01*
X200877552Y-120911125D01*
X200649572Y-121306347D01*
X200415684Y-121711691D01*
X200176784Y-122125604D01*
X199933770Y-122546535D01*
X199687536Y-122972933D01*
X199438981Y-123403248D01*
X199189000Y-123835927D01*
X198938490Y-124269419D01*
X198688347Y-124702173D01*
X198439469Y-125132638D01*
X198192750Y-125559263D01*
X197949088Y-125980496D01*
X197709380Y-126394786D01*
X197474521Y-126800582D01*
X197245408Y-127196332D01*
X197022938Y-127580486D01*
X196808007Y-127951491D01*
X196601512Y-128307797D01*
X196404349Y-128647853D01*
X196217414Y-128970106D01*
X196041605Y-129273007D01*
X195877817Y-129555003D01*
X195726947Y-129814544D01*
X195589891Y-130050077D01*
X195467547Y-130260053D01*
X195360810Y-130442919D01*
X195270577Y-130597124D01*
X195197744Y-130721117D01*
X195143208Y-130813348D01*
X195107865Y-130872263D01*
X195092612Y-130896313D01*
X195092084Y-130896823D01*
X195072409Y-130886280D01*
X195017365Y-130855288D01*
X194928231Y-130804584D01*
X194806287Y-130734906D01*
X194652814Y-130646991D01*
X194469092Y-130541577D01*
X194256400Y-130419400D01*
X194016019Y-130281199D01*
X193749229Y-130127710D01*
X193457311Y-129959672D01*
X193141544Y-129777822D01*
X192803208Y-129582897D01*
X192443585Y-129375635D01*
X192063953Y-129156773D01*
X191665594Y-128927048D01*
X191249786Y-128687198D01*
X190817811Y-128437961D01*
X190370949Y-128180073D01*
X189910479Y-127914273D01*
X189437682Y-127641298D01*
X188953839Y-127361885D01*
X188460228Y-127076772D01*
X188284285Y-126975131D01*
X187787198Y-126687947D01*
X187299299Y-126406050D01*
X186821874Y-126130183D01*
X186356211Y-125861091D01*
X185903598Y-125599518D01*
X185465321Y-125346209D01*
X185042667Y-125101909D01*
X184636925Y-124867361D01*
X184249381Y-124643311D01*
X183881323Y-124430503D01*
X183534037Y-124229680D01*
X183208812Y-124041588D01*
X182906935Y-123866972D01*
X182629692Y-123706575D01*
X182378371Y-123561142D01*
X182154260Y-123431417D01*
X181958645Y-123318146D01*
X181792815Y-123222072D01*
X181658056Y-123143940D01*
X181555655Y-123084494D01*
X181486901Y-123044479D01*
X181453079Y-123024639D01*
X181449766Y-123022622D01*
X181445726Y-123019632D01*
X181442614Y-123015630D01*
X181441056Y-123009517D01*
X181441676Y-123000189D01*
X181445101Y-122986547D01*
X181451954Y-122967488D01*
X181462863Y-122941911D01*
X181478451Y-122908715D01*
X181499344Y-122866798D01*
X181526167Y-122815058D01*
X181559546Y-122752395D01*
X181600105Y-122677706D01*
X181648471Y-122589891D01*
X181705268Y-122487847D01*
X181771121Y-122370474D01*
X181829907Y-122266338D01*
X184189853Y-122266338D01*
X184219267Y-122283924D01*
X184283019Y-122321276D01*
X184379308Y-122377356D01*
X184506331Y-122451125D01*
X184662287Y-122541544D01*
X184845374Y-122647575D01*
X185053790Y-122768177D01*
X185285733Y-122902312D01*
X185539402Y-123048942D01*
X185812993Y-123207027D01*
X186104707Y-123375529D01*
X186412740Y-123553408D01*
X186735291Y-123739626D01*
X187070558Y-123933144D01*
X187416738Y-124132923D01*
X187772031Y-124337924D01*
X188134635Y-124547108D01*
X188502746Y-124759436D01*
X188874565Y-124973869D01*
X189248287Y-125189368D01*
X189622113Y-125404895D01*
X189994240Y-125619411D01*
X190362865Y-125831876D01*
X190726188Y-126041252D01*
X191082406Y-126246500D01*
X191429718Y-126446581D01*
X191766321Y-126640455D01*
X192090414Y-126827085D01*
X192400194Y-127005431D01*
X192693861Y-127174454D01*
X192969611Y-127333116D01*
X193225644Y-127480377D01*
X193460157Y-127615199D01*
X193671348Y-127736542D01*
X193857416Y-127843369D01*
X194016559Y-127934639D01*
X194146974Y-128009314D01*
X194246861Y-128066355D01*
X194314416Y-128104723D01*
X194347839Y-128123379D01*
X194351250Y-128125090D01*
X194363482Y-128107018D01*
X194395994Y-128053742D01*
X194447926Y-127966739D01*
X194518422Y-127847483D01*
X194606624Y-127697451D01*
X194711673Y-127518118D01*
X194832712Y-127310959D01*
X194968883Y-127077451D01*
X195119328Y-126819068D01*
X195283189Y-126537286D01*
X195459608Y-126233581D01*
X195647728Y-125909428D01*
X195846690Y-125566303D01*
X196055636Y-125205682D01*
X196273709Y-124829039D01*
X196500051Y-124437851D01*
X196733803Y-124033592D01*
X196974109Y-123617740D01*
X197220109Y-123191768D01*
X197303050Y-123048091D01*
X197550691Y-122618985D01*
X197792762Y-122199386D01*
X198028413Y-121790775D01*
X198256791Y-121394632D01*
X198477045Y-121012438D01*
X198688324Y-120645675D01*
X198889776Y-120295823D01*
X199080550Y-119964364D01*
X199259794Y-119652779D01*
X199426658Y-119362548D01*
X199580289Y-119095153D01*
X199719836Y-118852075D01*
X199844448Y-118634795D01*
X199953274Y-118444794D01*
X200045461Y-118283553D01*
X200120159Y-118152552D01*
X200176516Y-118053274D01*
X200213681Y-117987199D01*
X200230802Y-117955808D01*
X200231908Y-117953311D01*
X200213666Y-117941385D01*
X200160227Y-117909165D01*
X200073065Y-117857509D01*
X199953655Y-117787272D01*
X199803470Y-117699311D01*
X199623987Y-117594482D01*
X199416678Y-117473641D01*
X199183018Y-117337644D01*
X198924483Y-117187348D01*
X198642545Y-117023608D01*
X198338681Y-116847282D01*
X198014364Y-116659224D01*
X197671069Y-116460292D01*
X197310270Y-116251341D01*
X196933442Y-116033228D01*
X196542060Y-115806808D01*
X196137597Y-115572939D01*
X195721528Y-115332476D01*
X195295328Y-115086276D01*
X195142980Y-114998298D01*
X194577866Y-114672076D01*
X194048790Y-114366854D01*
X193555210Y-114082321D01*
X193096587Y-113818170D01*
X192672378Y-113574091D01*
X192282041Y-113349775D01*
X191925037Y-113144914D01*
X191600822Y-112959199D01*
X191308855Y-112792320D01*
X191048596Y-112643969D01*
X190819503Y-112513836D01*
X190621034Y-112401614D01*
X190452648Y-112306994D01*
X190313803Y-112229665D01*
X190203959Y-112169320D01*
X190122573Y-112125649D01*
X190069105Y-112098344D01*
X190043012Y-112087096D01*
X190040113Y-112087034D01*
X190028326Y-112107354D01*
X189996221Y-112162846D01*
X189944659Y-112252023D01*
X189874496Y-112373400D01*
X189786591Y-112525491D01*
X189681803Y-112706811D01*
X189560991Y-112915873D01*
X189425012Y-113151193D01*
X189274724Y-113411284D01*
X189110988Y-113694662D01*
X188934659Y-113999839D01*
X188746598Y-114325331D01*
X188547663Y-114669653D01*
X188338712Y-115031317D01*
X188120603Y-115408840D01*
X187894194Y-115800734D01*
X187660345Y-116205515D01*
X187419914Y-116621697D01*
X187173759Y-117047794D01*
X187095844Y-117182666D01*
X186803072Y-117689654D01*
X186523081Y-118174895D01*
X186256372Y-118637511D01*
X186003446Y-119076627D01*
X185764802Y-119491368D01*
X185540942Y-119880858D01*
X185332366Y-120244220D01*
X185139575Y-120580581D01*
X184963070Y-120889062D01*
X184803350Y-121168789D01*
X184660917Y-121418887D01*
X184536271Y-121638478D01*
X184429913Y-121826689D01*
X184342344Y-121982642D01*
X184274063Y-122105462D01*
X184225573Y-122194273D01*
X184197372Y-122248200D01*
X184189853Y-122266338D01*
X181829907Y-122266338D01*
X181846656Y-122236670D01*
X181932498Y-122085334D01*
X182029273Y-121915363D01*
X182137605Y-121725657D01*
X182258119Y-121515114D01*
X182391442Y-121282633D01*
X182538197Y-121027112D01*
X182699011Y-120747450D01*
X182874509Y-120442545D01*
X183065316Y-120111297D01*
X183272057Y-119752602D01*
X183495358Y-119365361D01*
X183735843Y-118948471D01*
X183994138Y-118500831D01*
X184270868Y-118021340D01*
X184566659Y-117508896D01*
X184882136Y-116962398D01*
X185217923Y-116380744D01*
X185346605Y-116157844D01*
X185634426Y-115659370D01*
X185916932Y-115170273D01*
X186193383Y-114691826D01*
X186463040Y-114225303D01*
X186725165Y-113771979D01*
X186979019Y-113333126D01*
X187223861Y-112910019D01*
X187458955Y-112503932D01*
X187683559Y-112116138D01*
X187896937Y-111747913D01*
X188098348Y-111400529D01*
X188287054Y-111075262D01*
X188462316Y-110773383D01*
X188623394Y-110496169D01*
X188769550Y-110244892D01*
X188900046Y-110020827D01*
X189014141Y-109825247D01*
X189111097Y-109659427D01*
X189190175Y-109524640D01*
X189250636Y-109422160D01*
X189291741Y-109353262D01*
X189312751Y-109319219D01*
X189315417Y-109315617D01*
X189335301Y-109325409D01*
G36*
X83469667Y-117225000D02*
G01*
X67637000Y-117225000D01*
X67637000Y-103424333D01*
X69669000Y-103424333D01*
X69669000Y-115214166D01*
X81437667Y-115214166D01*
X81437667Y-103424333D01*
X69669000Y-103424333D01*
X67637000Y-103424333D01*
X67637000Y-101413500D01*
X83469667Y-101413500D01*
X83469667Y-117225000D01*
G37*
X83469667Y-117225000D02*
X67637000Y-117225000D01*
X67637000Y-103424333D01*
X69669000Y-103424333D01*
X69669000Y-115214166D01*
X81437667Y-115214166D01*
X81437667Y-103424333D01*
X69669000Y-103424333D01*
X67637000Y-103424333D01*
X67637000Y-101413500D01*
X83469667Y-101413500D01*
X83469667Y-117225000D01*
G36*
X102519667Y-117225000D02*
G01*
X86687000Y-117225000D01*
X86687000Y-103424333D01*
X88719000Y-103424333D01*
X88719000Y-115214166D01*
X100487667Y-115214166D01*
X100487667Y-103424333D01*
X88719000Y-103424333D01*
X86687000Y-103424333D01*
X86687000Y-101413500D01*
X102519667Y-101413500D01*
X102519667Y-117225000D01*
G37*
X102519667Y-117225000D02*
X86687000Y-117225000D01*
X86687000Y-103424333D01*
X88719000Y-103424333D01*
X88719000Y-115214166D01*
X100487667Y-115214166D01*
X100487667Y-103424333D01*
X88719000Y-103424333D01*
X86687000Y-103424333D01*
X86687000Y-101413500D01*
X102519667Y-101413500D01*
X102519667Y-117225000D01*
G36*
X178698500Y-114854333D02*
G01*
X162887000Y-114854333D01*
X162887000Y-101053666D01*
X164897834Y-101053666D01*
X164897834Y-112822333D01*
X176687667Y-112822333D01*
X176687667Y-101053666D01*
X164897834Y-101053666D01*
X162887000Y-101053666D01*
X162887000Y-99021666D01*
X178698500Y-99021666D01*
X178698500Y-114854333D01*
G37*
X178698500Y-114854333D02*
X162887000Y-114854333D01*
X162887000Y-101053666D01*
X164897834Y-101053666D01*
X164897834Y-112822333D01*
X176687667Y-112822333D01*
X176687667Y-101053666D01*
X164897834Y-101053666D01*
X162887000Y-101053666D01*
X162887000Y-99021666D01*
X178698500Y-99021666D01*
X178698500Y-114854333D01*
G36*
X121569667Y-112462500D02*
G01*
X105737000Y-112462500D01*
X105737000Y-98661833D01*
X107769000Y-98661833D01*
X107769000Y-110451666D01*
X119537667Y-110451666D01*
X119537667Y-98661833D01*
X107769000Y-98661833D01*
X105737000Y-98661833D01*
X105737000Y-96651000D01*
X121569667Y-96651000D01*
X121569667Y-112462500D01*
G37*
X121569667Y-112462500D02*
X105737000Y-112462500D01*
X105737000Y-98661833D01*
X107769000Y-98661833D01*
X107769000Y-110451666D01*
X119537667Y-110451666D01*
X119537667Y-98661833D01*
X107769000Y-98661833D01*
X105737000Y-98661833D01*
X105737000Y-96651000D01*
X121569667Y-96651000D01*
X121569667Y-112462500D01*
G36*
X159648500Y-112462500D02*
G01*
X143837000Y-112462500D01*
X143837000Y-98661833D01*
X145847834Y-98661833D01*
X145847834Y-110451666D01*
X157637667Y-110451666D01*
X157637667Y-98661833D01*
X145847834Y-98661833D01*
X143837000Y-98661833D01*
X143837000Y-96651000D01*
X159648500Y-96651000D01*
X159648500Y-112462500D01*
G37*
X159648500Y-112462500D02*
X143837000Y-112462500D01*
X143837000Y-98661833D01*
X145847834Y-98661833D01*
X145847834Y-110451666D01*
X157637667Y-110451666D01*
X157637667Y-98661833D01*
X145847834Y-98661833D01*
X143837000Y-98661833D01*
X143837000Y-96651000D01*
X159648500Y-96651000D01*
X159648500Y-112462500D01*
G36*
X140598500Y-110091833D02*
G01*
X124787000Y-110091833D01*
X124787000Y-96291166D01*
X126819000Y-96291166D01*
X126819000Y-108059833D01*
X138587667Y-108059833D01*
X138587667Y-96291166D01*
X126819000Y-96291166D01*
X124787000Y-96291166D01*
X124787000Y-94259166D01*
X140598500Y-94259166D01*
X140598500Y-110091833D01*
G37*
X140598500Y-110091833D02*
X124787000Y-110091833D01*
X124787000Y-96291166D01*
X126819000Y-96291166D01*
X126819000Y-108059833D01*
X138587667Y-108059833D01*
X138587667Y-96291166D01*
X126819000Y-96291166D01*
X124787000Y-96291166D01*
X124787000Y-94259166D01*
X140598500Y-94259166D01*
X140598500Y-110091833D01*
G36*
X83469667Y-98175000D02*
G01*
X67637000Y-98175000D01*
X67637000Y-84374333D01*
X69669000Y-84374333D01*
X69669000Y-96164166D01*
X81437667Y-96164166D01*
X81437667Y-84374333D01*
X69669000Y-84374333D01*
X67637000Y-84374333D01*
X67637000Y-82363500D01*
X83469667Y-82363500D01*
X83469667Y-98175000D01*
G37*
X83469667Y-98175000D02*
X67637000Y-98175000D01*
X67637000Y-84374333D01*
X69669000Y-84374333D01*
X69669000Y-96164166D01*
X81437667Y-96164166D01*
X81437667Y-84374333D01*
X69669000Y-84374333D01*
X67637000Y-84374333D01*
X67637000Y-82363500D01*
X83469667Y-82363500D01*
X83469667Y-98175000D01*
G36*
X102519667Y-98175000D02*
G01*
X86687000Y-98175000D01*
X86687000Y-84374333D01*
X88719000Y-84374333D01*
X88719000Y-96164166D01*
X100487667Y-96164166D01*
X100487667Y-84374333D01*
X88719000Y-84374333D01*
X86687000Y-84374333D01*
X86687000Y-82363500D01*
X102519667Y-82363500D01*
X102519667Y-98175000D01*
G37*
X102519667Y-98175000D02*
X86687000Y-98175000D01*
X86687000Y-84374333D01*
X88719000Y-84374333D01*
X88719000Y-96164166D01*
X100487667Y-96164166D01*
X100487667Y-84374333D01*
X88719000Y-84374333D01*
X86687000Y-84374333D01*
X86687000Y-82363500D01*
X102519667Y-82363500D01*
X102519667Y-98175000D01*
G36*
X178698500Y-95804333D02*
G01*
X162887000Y-95804333D01*
X162887000Y-82003666D01*
X164897834Y-82003666D01*
X164897834Y-93772333D01*
X176687667Y-93772333D01*
X176687667Y-82003666D01*
X164897834Y-82003666D01*
X162887000Y-82003666D01*
X162887000Y-79971666D01*
X178698500Y-79971666D01*
X178698500Y-95804333D01*
G37*
X178698500Y-95804333D02*
X162887000Y-95804333D01*
X162887000Y-82003666D01*
X164897834Y-82003666D01*
X164897834Y-93772333D01*
X176687667Y-93772333D01*
X176687667Y-82003666D01*
X164897834Y-82003666D01*
X162887000Y-82003666D01*
X162887000Y-79971666D01*
X178698500Y-79971666D01*
X178698500Y-95804333D01*
G36*
X121569667Y-93412500D02*
G01*
X105737000Y-93412500D01*
X105737000Y-79611833D01*
X107769000Y-79611833D01*
X107769000Y-91401666D01*
X119537667Y-91401666D01*
X119537667Y-79611833D01*
X107769000Y-79611833D01*
X105737000Y-79611833D01*
X105737000Y-77601000D01*
X121569667Y-77601000D01*
X121569667Y-93412500D01*
G37*
X121569667Y-93412500D02*
X105737000Y-93412500D01*
X105737000Y-79611833D01*
X107769000Y-79611833D01*
X107769000Y-91401666D01*
X119537667Y-91401666D01*
X119537667Y-79611833D01*
X107769000Y-79611833D01*
X105737000Y-79611833D01*
X105737000Y-77601000D01*
X121569667Y-77601000D01*
X121569667Y-93412500D01*
G36*
X159648500Y-93412500D02*
G01*
X143837000Y-93412500D01*
X143837000Y-79611833D01*
X145847834Y-79611833D01*
X145847834Y-91401666D01*
X157637667Y-91401666D01*
X157637667Y-79611833D01*
X145847834Y-79611833D01*
X143837000Y-79611833D01*
X143837000Y-77601000D01*
X159648500Y-77601000D01*
X159648500Y-93412500D01*
G37*
X159648500Y-93412500D02*
X143837000Y-93412500D01*
X143837000Y-79611833D01*
X145847834Y-79611833D01*
X145847834Y-91401666D01*
X157637667Y-91401666D01*
X157637667Y-79611833D01*
X145847834Y-79611833D01*
X143837000Y-79611833D01*
X143837000Y-77601000D01*
X159648500Y-77601000D01*
X159648500Y-93412500D01*
G36*
X140598500Y-91041833D02*
G01*
X124787000Y-91041833D01*
X124787000Y-77241166D01*
X126819000Y-77241166D01*
X126819000Y-89009833D01*
X138587667Y-89009833D01*
X138587667Y-77241166D01*
X126819000Y-77241166D01*
X124787000Y-77241166D01*
X124787000Y-75209166D01*
X140598500Y-75209166D01*
X140598500Y-91041833D01*
G37*
X140598500Y-91041833D02*
X124787000Y-91041833D01*
X124787000Y-77241166D01*
X126819000Y-77241166D01*
X126819000Y-89009833D01*
X138587667Y-89009833D01*
X138587667Y-77241166D01*
X126819000Y-77241166D01*
X124787000Y-77241166D01*
X124787000Y-75209166D01*
X140598500Y-75209166D01*
X140598500Y-91041833D01*
G36*
X83469667Y-79125000D02*
G01*
X67637000Y-79125000D01*
X67637000Y-65324333D01*
X69669000Y-65324333D01*
X69669000Y-77114166D01*
X81437667Y-77114166D01*
X81437667Y-65324333D01*
X69669000Y-65324333D01*
X67637000Y-65324333D01*
X67637000Y-63313500D01*
X83469667Y-63313500D01*
X83469667Y-79125000D01*
G37*
X83469667Y-79125000D02*
X67637000Y-79125000D01*
X67637000Y-65324333D01*
X69669000Y-65324333D01*
X69669000Y-77114166D01*
X81437667Y-77114166D01*
X81437667Y-65324333D01*
X69669000Y-65324333D01*
X67637000Y-65324333D01*
X67637000Y-63313500D01*
X83469667Y-63313500D01*
X83469667Y-79125000D01*
G36*
X102519667Y-79125000D02*
G01*
X86687000Y-79125000D01*
X86687000Y-65324333D01*
X88719000Y-65324333D01*
X88719000Y-77114166D01*
X100487667Y-77114166D01*
X100487667Y-65324333D01*
X88719000Y-65324333D01*
X86687000Y-65324333D01*
X86687000Y-63313500D01*
X102519667Y-63313500D01*
X102519667Y-79125000D01*
G37*
X102519667Y-79125000D02*
X86687000Y-79125000D01*
X86687000Y-65324333D01*
X88719000Y-65324333D01*
X88719000Y-77114166D01*
X100487667Y-77114166D01*
X100487667Y-65324333D01*
X88719000Y-65324333D01*
X86687000Y-65324333D01*
X86687000Y-63313500D01*
X102519667Y-63313500D01*
X102519667Y-79125000D01*
G36*
X178698500Y-76754333D02*
G01*
X162887000Y-76754333D01*
X162887000Y-62953666D01*
X164897834Y-62953666D01*
X164897834Y-74722333D01*
X176687667Y-74722333D01*
X176687667Y-62953666D01*
X164897834Y-62953666D01*
X162887000Y-62953666D01*
X162887000Y-60921666D01*
X178698500Y-60921666D01*
X178698500Y-76754333D01*
G37*
X178698500Y-76754333D02*
X162887000Y-76754333D01*
X162887000Y-62953666D01*
X164897834Y-62953666D01*
X164897834Y-74722333D01*
X176687667Y-74722333D01*
X176687667Y-62953666D01*
X164897834Y-62953666D01*
X162887000Y-62953666D01*
X162887000Y-60921666D01*
X178698500Y-60921666D01*
X178698500Y-76754333D01*
G36*
X121569667Y-74362500D02*
G01*
X105737000Y-74362500D01*
X105737000Y-60561833D01*
X107769000Y-60561833D01*
X107769000Y-72351666D01*
X119537667Y-72351666D01*
X119537667Y-60561833D01*
X107769000Y-60561833D01*
X105737000Y-60561833D01*
X105737000Y-58551000D01*
X121569667Y-58551000D01*
X121569667Y-74362500D01*
G37*
X121569667Y-74362500D02*
X105737000Y-74362500D01*
X105737000Y-60561833D01*
X107769000Y-60561833D01*
X107769000Y-72351666D01*
X119537667Y-72351666D01*
X119537667Y-60561833D01*
X107769000Y-60561833D01*
X105737000Y-60561833D01*
X105737000Y-58551000D01*
X121569667Y-58551000D01*
X121569667Y-74362500D01*
G36*
X159648500Y-74362500D02*
G01*
X143837000Y-74362500D01*
X143837000Y-60561833D01*
X145847834Y-60561833D01*
X145847834Y-72351666D01*
X157637667Y-72351666D01*
X157637667Y-60561833D01*
X145847834Y-60561833D01*
X143837000Y-60561833D01*
X143837000Y-58551000D01*
X159648500Y-58551000D01*
X159648500Y-74362500D01*
G37*
X159648500Y-74362500D02*
X143837000Y-74362500D01*
X143837000Y-60561833D01*
X145847834Y-60561833D01*
X145847834Y-72351666D01*
X157637667Y-72351666D01*
X157637667Y-60561833D01*
X145847834Y-60561833D01*
X143837000Y-60561833D01*
X143837000Y-58551000D01*
X159648500Y-58551000D01*
X159648500Y-74362500D01*
G36*
X140598500Y-71991833D02*
G01*
X124787000Y-71991833D01*
X124787000Y-58191166D01*
X126819000Y-58191166D01*
X126819000Y-69959833D01*
X138587667Y-69959833D01*
X138587667Y-58191166D01*
X126819000Y-58191166D01*
X124787000Y-58191166D01*
X124787000Y-56159166D01*
X140598500Y-56159166D01*
X140598500Y-71991833D01*
G37*
X140598500Y-71991833D02*
X124787000Y-71991833D01*
X124787000Y-58191166D01*
X126819000Y-58191166D01*
X126819000Y-69959833D01*
X138587667Y-69959833D01*
X138587667Y-58191166D01*
X126819000Y-58191166D01*
X124787000Y-58191166D01*
X124787000Y-56159166D01*
X140598500Y-56159166D01*
X140598500Y-71991833D01*
G36*
X83469667Y-60075000D02*
G01*
X67637000Y-60075000D01*
X67637000Y-46274333D01*
X69669000Y-46274333D01*
X69669000Y-58064166D01*
X81437667Y-58064166D01*
X81437667Y-46274333D01*
X69669000Y-46274333D01*
X67637000Y-46274333D01*
X67637000Y-44263500D01*
X83469667Y-44263500D01*
X83469667Y-60075000D01*
G37*
X83469667Y-60075000D02*
X67637000Y-60075000D01*
X67637000Y-46274333D01*
X69669000Y-46274333D01*
X69669000Y-58064166D01*
X81437667Y-58064166D01*
X81437667Y-46274333D01*
X69669000Y-46274333D01*
X67637000Y-46274333D01*
X67637000Y-44263500D01*
X83469667Y-44263500D01*
X83469667Y-60075000D01*
G36*
X102519667Y-60075000D02*
G01*
X86687000Y-60075000D01*
X86687000Y-46274333D01*
X88719000Y-46274333D01*
X88719000Y-58064166D01*
X100487667Y-58064166D01*
X100487667Y-46274333D01*
X88719000Y-46274333D01*
X86687000Y-46274333D01*
X86687000Y-44263500D01*
X102519667Y-44263500D01*
X102519667Y-60075000D01*
G37*
X102519667Y-60075000D02*
X86687000Y-60075000D01*
X86687000Y-46274333D01*
X88719000Y-46274333D01*
X88719000Y-58064166D01*
X100487667Y-58064166D01*
X100487667Y-46274333D01*
X88719000Y-46274333D01*
X86687000Y-46274333D01*
X86687000Y-44263500D01*
X102519667Y-44263500D01*
X102519667Y-60075000D01*
G36*
X178698500Y-57704333D02*
G01*
X162887000Y-57704333D01*
X162887000Y-43903666D01*
X164897834Y-43903666D01*
X164897834Y-55672333D01*
X176687667Y-55672333D01*
X176687667Y-43903666D01*
X164897834Y-43903666D01*
X162887000Y-43903666D01*
X162887000Y-41871666D01*
X178698500Y-41871666D01*
X178698500Y-57704333D01*
G37*
X178698500Y-57704333D02*
X162887000Y-57704333D01*
X162887000Y-43903666D01*
X164897834Y-43903666D01*
X164897834Y-55672333D01*
X176687667Y-55672333D01*
X176687667Y-43903666D01*
X164897834Y-43903666D01*
X162887000Y-43903666D01*
X162887000Y-41871666D01*
X178698500Y-41871666D01*
X178698500Y-57704333D01*
G36*
X121569667Y-55312500D02*
G01*
X105737000Y-55312500D01*
X105737000Y-41511833D01*
X107769000Y-41511833D01*
X107769000Y-53301666D01*
X119537667Y-53301666D01*
X119537667Y-41511833D01*
X107769000Y-41511833D01*
X105737000Y-41511833D01*
X105737000Y-39501000D01*
X121569667Y-39501000D01*
X121569667Y-55312500D01*
G37*
X121569667Y-55312500D02*
X105737000Y-55312500D01*
X105737000Y-41511833D01*
X107769000Y-41511833D01*
X107769000Y-53301666D01*
X119537667Y-53301666D01*
X119537667Y-41511833D01*
X107769000Y-41511833D01*
X105737000Y-41511833D01*
X105737000Y-39501000D01*
X121569667Y-39501000D01*
X121569667Y-55312500D01*
G36*
X159648500Y-55312500D02*
G01*
X143837000Y-55312500D01*
X143837000Y-41511833D01*
X145847834Y-41511833D01*
X145847834Y-53301666D01*
X157637667Y-53301666D01*
X157637667Y-41511833D01*
X145847834Y-41511833D01*
X143837000Y-41511833D01*
X143837000Y-39501000D01*
X159648500Y-39501000D01*
X159648500Y-55312500D01*
G37*
X159648500Y-55312500D02*
X143837000Y-55312500D01*
X143837000Y-41511833D01*
X145847834Y-41511833D01*
X145847834Y-53301666D01*
X157637667Y-53301666D01*
X157637667Y-41511833D01*
X145847834Y-41511833D01*
X143837000Y-41511833D01*
X143837000Y-39501000D01*
X159648500Y-39501000D01*
X159648500Y-55312500D01*
G36*
X140598500Y-52941833D02*
G01*
X124787000Y-52941833D01*
X124787000Y-39141166D01*
X126819000Y-39141166D01*
X126819000Y-50909833D01*
X138587667Y-50909833D01*
X138587667Y-39141166D01*
X126819000Y-39141166D01*
X124787000Y-39141166D01*
X124787000Y-37109166D01*
X140598500Y-37109166D01*
X140598500Y-52941833D01*
G37*
X140598500Y-52941833D02*
X124787000Y-52941833D01*
X124787000Y-39141166D01*
X126819000Y-39141166D01*
X126819000Y-50909833D01*
X138587667Y-50909833D01*
X138587667Y-39141166D01*
X126819000Y-39141166D01*
X124787000Y-39141166D01*
X124787000Y-37109166D01*
X140598500Y-37109166D01*
X140598500Y-52941833D01*
D11*
X57500000Y-106670000D03*
X57500000Y-104000000D03*
X57500000Y-105780000D03*
X57500000Y-101330000D03*
X57500000Y-103110000D03*
X57500000Y-102220000D03*
X57500000Y-104890000D03*
X59500000Y-104890000D03*
X59500000Y-104000000D03*
X59500000Y-106670000D03*
X59500000Y-105780000D03*
X59500000Y-102220000D03*
X59500000Y-103110000D03*
X59500000Y-101330000D03*
X59500000Y-51330000D03*
X59500000Y-53110000D03*
X59500000Y-52220000D03*
X59500000Y-55780000D03*
X59500000Y-56670000D03*
X59500000Y-54000000D03*
X59500000Y-54890000D03*
X57500000Y-54890000D03*
X57500000Y-52220000D03*
X57500000Y-53110000D03*
X57500000Y-51330000D03*
X57500000Y-55780000D03*
X57500000Y-54000000D03*
X57500000Y-56670000D03*
D12*
X63908255Y-120973030D03*
X129678976Y-139839560D03*
X185704580Y-154597290D03*
X209245050Y-113704414D03*
X182860140Y-38720915D03*
X162302760Y-30535074D03*
X112422526Y-29905013D03*
X63709641Y-40694351D03*
X195481100Y-104252815D03*
X183301110Y-86702148D03*
M02*
