G04 #@! TF.GenerationSoftware,KiCad,Pcbnew,(5.1.10)-1*
G04 #@! TF.CreationDate,2021-05-12T20:45:37+09:00*
G04 #@! TF.ProjectId,iris-switch-plate-choc-svg2shenzhen,69726973-2d73-4776-9974-63682d706c61,rev?*
G04 #@! TF.SameCoordinates,Original*
G04 #@! TF.FileFunction,Copper,L1,Top*
G04 #@! TF.FilePolarity,Positive*
%FSLAX46Y46*%
G04 Gerber Fmt 4.6, Leading zero omitted, Abs format (unit mm)*
G04 Created by KiCad (PCBNEW (5.1.10)-1) date 2021-05-12 20:45:37*
%MOMM*%
%LPD*%
G01*
G04 APERTURE LIST*
G04 #@! TA.AperFunction,EtchedComponent*
%ADD10C,0.010000*%
G04 #@! TD*
G04 #@! TA.AperFunction,ComponentPad*
%ADD11C,2.099730*%
G04 #@! TD*
G04 APERTURE END LIST*
D10*
G36*
X179450216Y-124453640D02*
G01*
X179504860Y-124484405D01*
X179593231Y-124534662D01*
X179713865Y-124603567D01*
X179865301Y-124690277D01*
X180046074Y-124793947D01*
X180254721Y-124913733D01*
X180489780Y-125048790D01*
X180749787Y-125198274D01*
X181033278Y-125361342D01*
X181338791Y-125537148D01*
X181664863Y-125724849D01*
X182010029Y-125923600D01*
X182372829Y-126132557D01*
X182751797Y-126350877D01*
X183145471Y-126577713D01*
X183552387Y-126812224D01*
X183971083Y-127053563D01*
X184400096Y-127300887D01*
X184837961Y-127553352D01*
X185283217Y-127810114D01*
X185734399Y-128070328D01*
X186190045Y-128333149D01*
X186648692Y-128597735D01*
X187108875Y-128863240D01*
X187569133Y-129128820D01*
X188028002Y-129393631D01*
X188484019Y-129656829D01*
X188935721Y-129917570D01*
X189381643Y-130175009D01*
X189820325Y-130428302D01*
X190250301Y-130676605D01*
X190670109Y-130919073D01*
X191078286Y-131154863D01*
X191473369Y-131383130D01*
X191853894Y-131603030D01*
X192218399Y-131813718D01*
X192565420Y-132014351D01*
X192893493Y-132204084D01*
X193201157Y-132382074D01*
X193486947Y-132547474D01*
X193749400Y-132699443D01*
X193987054Y-132837134D01*
X194198445Y-132959705D01*
X194382110Y-133066310D01*
X194536586Y-133156106D01*
X194660409Y-133228248D01*
X194752117Y-133281892D01*
X194810246Y-133316194D01*
X194833333Y-133330310D01*
X194833634Y-133330554D01*
X194824139Y-133349590D01*
X194794300Y-133403816D01*
X194744960Y-133491772D01*
X194676960Y-133611997D01*
X194591142Y-133763031D01*
X194488348Y-133943413D01*
X194369420Y-134151681D01*
X194235201Y-134386377D01*
X194086530Y-134646039D01*
X193924252Y-134929206D01*
X193749207Y-135234417D01*
X193562237Y-135560213D01*
X193364185Y-135905133D01*
X193155892Y-136267716D01*
X192938199Y-136646501D01*
X192711950Y-137040028D01*
X192477986Y-137446836D01*
X192237148Y-137865464D01*
X191990279Y-138294452D01*
X191738221Y-138732340D01*
X191481815Y-139177667D01*
X191221903Y-139628971D01*
X190959327Y-140084793D01*
X190694929Y-140543672D01*
X190429551Y-141004147D01*
X190164035Y-141464758D01*
X189899223Y-141924043D01*
X189635956Y-142380544D01*
X189375077Y-142832798D01*
X189117427Y-143279345D01*
X188863848Y-143718724D01*
X188615183Y-144149476D01*
X188372272Y-144570139D01*
X188135958Y-144979253D01*
X187907083Y-145375357D01*
X187686489Y-145756990D01*
X187475017Y-146122692D01*
X187273510Y-146471003D01*
X187082809Y-146800461D01*
X186903756Y-147109607D01*
X186737193Y-147396978D01*
X186583963Y-147661116D01*
X186444906Y-147900559D01*
X186320864Y-148113846D01*
X186212681Y-148299517D01*
X186121197Y-148456112D01*
X186047254Y-148582170D01*
X185991695Y-148676229D01*
X185955361Y-148736831D01*
X185939094Y-148762513D01*
X185938303Y-148763333D01*
X185919321Y-148752862D01*
X185864890Y-148721913D01*
X185776216Y-148671182D01*
X185654509Y-148601366D01*
X185500976Y-148513161D01*
X185316823Y-148407262D01*
X185103261Y-148284368D01*
X184861495Y-148145173D01*
X184592734Y-147990373D01*
X184298186Y-147820667D01*
X183979058Y-147636748D01*
X183636559Y-147439314D01*
X183271895Y-147229062D01*
X182886275Y-147006686D01*
X182480907Y-146772885D01*
X182056998Y-146528353D01*
X181615756Y-146273787D01*
X181158389Y-146009883D01*
X180686105Y-145737339D01*
X180200111Y-145456849D01*
X179701615Y-145169110D01*
X179191825Y-144874819D01*
X178671949Y-144574671D01*
X178327652Y-144375875D01*
X177800836Y-144071682D01*
X177282888Y-143772611D01*
X176775037Y-143479370D01*
X176278512Y-143192671D01*
X175794541Y-142913221D01*
X175324354Y-142641730D01*
X174869179Y-142378909D01*
X174430245Y-142125466D01*
X174008780Y-141882111D01*
X173606014Y-141649554D01*
X173223175Y-141428503D01*
X172861492Y-141219669D01*
X172522194Y-141023761D01*
X172206509Y-140841488D01*
X171915667Y-140673560D01*
X171650895Y-140520687D01*
X171413424Y-140383577D01*
X171204481Y-140262941D01*
X171025295Y-140159487D01*
X170877096Y-140073926D01*
X170761112Y-140006966D01*
X170678571Y-139959318D01*
X170630703Y-139931691D01*
X170618992Y-139924937D01*
X170508733Y-139861456D01*
X171355388Y-138394567D01*
X176026683Y-138394567D01*
X176026695Y-138394588D01*
X176046414Y-138406601D01*
X176100877Y-138438649D01*
X176188156Y-138489616D01*
X176306326Y-138558386D01*
X176453458Y-138643844D01*
X176627626Y-138744874D01*
X176826904Y-138860359D01*
X177049363Y-138989184D01*
X177293078Y-139130233D01*
X177556121Y-139282390D01*
X177836565Y-139444539D01*
X178132483Y-139615564D01*
X178441949Y-139794349D01*
X178763036Y-139979778D01*
X179058334Y-140150256D01*
X179411023Y-140353840D01*
X179767651Y-140559713D01*
X180125149Y-140766102D01*
X180480448Y-140971234D01*
X180830479Y-141173338D01*
X181172174Y-141370641D01*
X181502464Y-141561372D01*
X181818280Y-141743758D01*
X182116554Y-141916027D01*
X182394217Y-142076407D01*
X182648201Y-142223126D01*
X182875436Y-142354412D01*
X183072855Y-142468493D01*
X183237388Y-142563596D01*
X183270500Y-142582740D01*
X184466417Y-143274206D01*
X184501464Y-143219478D01*
X184515188Y-143196256D01*
X184549111Y-143138024D01*
X184602275Y-143046438D01*
X184673721Y-142923155D01*
X184762493Y-142769831D01*
X184867632Y-142588125D01*
X184988180Y-142379692D01*
X185123181Y-142146190D01*
X185271677Y-141889275D01*
X185432709Y-141610606D01*
X185605321Y-141311838D01*
X185788554Y-140994628D01*
X185981451Y-140660635D01*
X186183055Y-140311513D01*
X186392406Y-139948922D01*
X186608549Y-139574517D01*
X186830525Y-139189955D01*
X186940922Y-138998679D01*
X187164985Y-138610385D01*
X187383401Y-138231745D01*
X187595232Y-137864394D01*
X187799535Y-137509970D01*
X187995371Y-137170106D01*
X188181799Y-136846438D01*
X188357879Y-136540603D01*
X188522670Y-136254235D01*
X188675232Y-135988971D01*
X188814623Y-135746446D01*
X188939904Y-135528295D01*
X189050134Y-135336153D01*
X189144372Y-135171658D01*
X189221679Y-135036443D01*
X189281113Y-134932146D01*
X189321733Y-134860400D01*
X189342600Y-134822843D01*
X189345334Y-134817379D01*
X189327333Y-134805706D01*
X189274645Y-134774049D01*
X189189240Y-134723549D01*
X189073090Y-134655344D01*
X188928164Y-134570575D01*
X188756434Y-134470379D01*
X188559871Y-134355898D01*
X188340445Y-134228269D01*
X188100127Y-134088632D01*
X187840888Y-133938127D01*
X187564699Y-133777893D01*
X187273530Y-133609070D01*
X186969352Y-133432796D01*
X186654137Y-133250210D01*
X186329854Y-133062453D01*
X185998475Y-132870664D01*
X185661971Y-132675982D01*
X185322311Y-132479545D01*
X184981468Y-132282495D01*
X184641411Y-132085969D01*
X184304112Y-131891108D01*
X183971542Y-131699050D01*
X183645670Y-131510935D01*
X183328469Y-131327902D01*
X183021908Y-131151090D01*
X182727959Y-130981640D01*
X182448592Y-130820690D01*
X182185778Y-130669379D01*
X181941488Y-130528847D01*
X181717693Y-130400233D01*
X181516363Y-130284677D01*
X181339469Y-130183318D01*
X181188983Y-130097295D01*
X181066874Y-130027747D01*
X180975114Y-129975814D01*
X180915674Y-129942636D01*
X180890523Y-129929351D01*
X180889788Y-129929161D01*
X180875023Y-129952585D01*
X180840541Y-130010455D01*
X180787478Y-130100797D01*
X180716968Y-130221637D01*
X180630146Y-130370999D01*
X180528145Y-130546910D01*
X180412100Y-130747395D01*
X180283145Y-130970479D01*
X180142415Y-131214187D01*
X179991044Y-131476545D01*
X179830167Y-131755578D01*
X179660917Y-132049312D01*
X179484430Y-132355771D01*
X179301839Y-132672982D01*
X179114278Y-132998970D01*
X178922883Y-133331760D01*
X178728788Y-133669377D01*
X178533126Y-134009847D01*
X178337033Y-134351195D01*
X178141642Y-134691447D01*
X177948088Y-135028628D01*
X177757506Y-135360763D01*
X177571029Y-135685878D01*
X177389792Y-136001998D01*
X177214929Y-136307148D01*
X177047576Y-136599355D01*
X176888865Y-136876642D01*
X176739931Y-137137036D01*
X176601910Y-137378562D01*
X176475934Y-137599246D01*
X176363139Y-137797112D01*
X176264659Y-137970186D01*
X176181628Y-138116494D01*
X176115181Y-138234060D01*
X176066451Y-138320911D01*
X176036574Y-138375071D01*
X176026683Y-138394567D01*
X171355388Y-138394567D01*
X174958158Y-132152525D01*
X175263920Y-131622866D01*
X175564393Y-131102553D01*
X175858883Y-130592783D01*
X176146695Y-130094753D01*
X176427134Y-129609662D01*
X176699506Y-129138706D01*
X176963116Y-128683083D01*
X177217269Y-128243991D01*
X177461270Y-127822627D01*
X177694426Y-127420188D01*
X177916040Y-127037872D01*
X178125419Y-126676876D01*
X178321868Y-126338398D01*
X178504691Y-126023636D01*
X178673195Y-125733786D01*
X178826685Y-125470046D01*
X178964465Y-125233613D01*
X179085841Y-125025686D01*
X179190119Y-124847461D01*
X179276603Y-124700136D01*
X179344600Y-124584909D01*
X179393413Y-124502976D01*
X179422350Y-124455536D01*
X179430762Y-124443213D01*
X179450216Y-124453640D01*
G37*
X179450216Y-124453640D02*
X179504860Y-124484405D01*
X179593231Y-124534662D01*
X179713865Y-124603567D01*
X179865301Y-124690277D01*
X180046074Y-124793947D01*
X180254721Y-124913733D01*
X180489780Y-125048790D01*
X180749787Y-125198274D01*
X181033278Y-125361342D01*
X181338791Y-125537148D01*
X181664863Y-125724849D01*
X182010029Y-125923600D01*
X182372829Y-126132557D01*
X182751797Y-126350877D01*
X183145471Y-126577713D01*
X183552387Y-126812224D01*
X183971083Y-127053563D01*
X184400096Y-127300887D01*
X184837961Y-127553352D01*
X185283217Y-127810114D01*
X185734399Y-128070328D01*
X186190045Y-128333149D01*
X186648692Y-128597735D01*
X187108875Y-128863240D01*
X187569133Y-129128820D01*
X188028002Y-129393631D01*
X188484019Y-129656829D01*
X188935721Y-129917570D01*
X189381643Y-130175009D01*
X189820325Y-130428302D01*
X190250301Y-130676605D01*
X190670109Y-130919073D01*
X191078286Y-131154863D01*
X191473369Y-131383130D01*
X191853894Y-131603030D01*
X192218399Y-131813718D01*
X192565420Y-132014351D01*
X192893493Y-132204084D01*
X193201157Y-132382074D01*
X193486947Y-132547474D01*
X193749400Y-132699443D01*
X193987054Y-132837134D01*
X194198445Y-132959705D01*
X194382110Y-133066310D01*
X194536586Y-133156106D01*
X194660409Y-133228248D01*
X194752117Y-133281892D01*
X194810246Y-133316194D01*
X194833333Y-133330310D01*
X194833634Y-133330554D01*
X194824139Y-133349590D01*
X194794300Y-133403816D01*
X194744960Y-133491772D01*
X194676960Y-133611997D01*
X194591142Y-133763031D01*
X194488348Y-133943413D01*
X194369420Y-134151681D01*
X194235201Y-134386377D01*
X194086530Y-134646039D01*
X193924252Y-134929206D01*
X193749207Y-135234417D01*
X193562237Y-135560213D01*
X193364185Y-135905133D01*
X193155892Y-136267716D01*
X192938199Y-136646501D01*
X192711950Y-137040028D01*
X192477986Y-137446836D01*
X192237148Y-137865464D01*
X191990279Y-138294452D01*
X191738221Y-138732340D01*
X191481815Y-139177667D01*
X191221903Y-139628971D01*
X190959327Y-140084793D01*
X190694929Y-140543672D01*
X190429551Y-141004147D01*
X190164035Y-141464758D01*
X189899223Y-141924043D01*
X189635956Y-142380544D01*
X189375077Y-142832798D01*
X189117427Y-143279345D01*
X188863848Y-143718724D01*
X188615183Y-144149476D01*
X188372272Y-144570139D01*
X188135958Y-144979253D01*
X187907083Y-145375357D01*
X187686489Y-145756990D01*
X187475017Y-146122692D01*
X187273510Y-146471003D01*
X187082809Y-146800461D01*
X186903756Y-147109607D01*
X186737193Y-147396978D01*
X186583963Y-147661116D01*
X186444906Y-147900559D01*
X186320864Y-148113846D01*
X186212681Y-148299517D01*
X186121197Y-148456112D01*
X186047254Y-148582170D01*
X185991695Y-148676229D01*
X185955361Y-148736831D01*
X185939094Y-148762513D01*
X185938303Y-148763333D01*
X185919321Y-148752862D01*
X185864890Y-148721913D01*
X185776216Y-148671182D01*
X185654509Y-148601366D01*
X185500976Y-148513161D01*
X185316823Y-148407262D01*
X185103261Y-148284368D01*
X184861495Y-148145173D01*
X184592734Y-147990373D01*
X184298186Y-147820667D01*
X183979058Y-147636748D01*
X183636559Y-147439314D01*
X183271895Y-147229062D01*
X182886275Y-147006686D01*
X182480907Y-146772885D01*
X182056998Y-146528353D01*
X181615756Y-146273787D01*
X181158389Y-146009883D01*
X180686105Y-145737339D01*
X180200111Y-145456849D01*
X179701615Y-145169110D01*
X179191825Y-144874819D01*
X178671949Y-144574671D01*
X178327652Y-144375875D01*
X177800836Y-144071682D01*
X177282888Y-143772611D01*
X176775037Y-143479370D01*
X176278512Y-143192671D01*
X175794541Y-142913221D01*
X175324354Y-142641730D01*
X174869179Y-142378909D01*
X174430245Y-142125466D01*
X174008780Y-141882111D01*
X173606014Y-141649554D01*
X173223175Y-141428503D01*
X172861492Y-141219669D01*
X172522194Y-141023761D01*
X172206509Y-140841488D01*
X171915667Y-140673560D01*
X171650895Y-140520687D01*
X171413424Y-140383577D01*
X171204481Y-140262941D01*
X171025295Y-140159487D01*
X170877096Y-140073926D01*
X170761112Y-140006966D01*
X170678571Y-139959318D01*
X170630703Y-139931691D01*
X170618992Y-139924937D01*
X170508733Y-139861456D01*
X171355388Y-138394567D01*
X176026683Y-138394567D01*
X176026695Y-138394588D01*
X176046414Y-138406601D01*
X176100877Y-138438649D01*
X176188156Y-138489616D01*
X176306326Y-138558386D01*
X176453458Y-138643844D01*
X176627626Y-138744874D01*
X176826904Y-138860359D01*
X177049363Y-138989184D01*
X177293078Y-139130233D01*
X177556121Y-139282390D01*
X177836565Y-139444539D01*
X178132483Y-139615564D01*
X178441949Y-139794349D01*
X178763036Y-139979778D01*
X179058334Y-140150256D01*
X179411023Y-140353840D01*
X179767651Y-140559713D01*
X180125149Y-140766102D01*
X180480448Y-140971234D01*
X180830479Y-141173338D01*
X181172174Y-141370641D01*
X181502464Y-141561372D01*
X181818280Y-141743758D01*
X182116554Y-141916027D01*
X182394217Y-142076407D01*
X182648201Y-142223126D01*
X182875436Y-142354412D01*
X183072855Y-142468493D01*
X183237388Y-142563596D01*
X183270500Y-142582740D01*
X184466417Y-143274206D01*
X184501464Y-143219478D01*
X184515188Y-143196256D01*
X184549111Y-143138024D01*
X184602275Y-143046438D01*
X184673721Y-142923155D01*
X184762493Y-142769831D01*
X184867632Y-142588125D01*
X184988180Y-142379692D01*
X185123181Y-142146190D01*
X185271677Y-141889275D01*
X185432709Y-141610606D01*
X185605321Y-141311838D01*
X185788554Y-140994628D01*
X185981451Y-140660635D01*
X186183055Y-140311513D01*
X186392406Y-139948922D01*
X186608549Y-139574517D01*
X186830525Y-139189955D01*
X186940922Y-138998679D01*
X187164985Y-138610385D01*
X187383401Y-138231745D01*
X187595232Y-137864394D01*
X187799535Y-137509970D01*
X187995371Y-137170106D01*
X188181799Y-136846438D01*
X188357879Y-136540603D01*
X188522670Y-136254235D01*
X188675232Y-135988971D01*
X188814623Y-135746446D01*
X188939904Y-135528295D01*
X189050134Y-135336153D01*
X189144372Y-135171658D01*
X189221679Y-135036443D01*
X189281113Y-134932146D01*
X189321733Y-134860400D01*
X189342600Y-134822843D01*
X189345334Y-134817379D01*
X189327333Y-134805706D01*
X189274645Y-134774049D01*
X189189240Y-134723549D01*
X189073090Y-134655344D01*
X188928164Y-134570575D01*
X188756434Y-134470379D01*
X188559871Y-134355898D01*
X188340445Y-134228269D01*
X188100127Y-134088632D01*
X187840888Y-133938127D01*
X187564699Y-133777893D01*
X187273530Y-133609070D01*
X186969352Y-133432796D01*
X186654137Y-133250210D01*
X186329854Y-133062453D01*
X185998475Y-132870664D01*
X185661971Y-132675982D01*
X185322311Y-132479545D01*
X184981468Y-132282495D01*
X184641411Y-132085969D01*
X184304112Y-131891108D01*
X183971542Y-131699050D01*
X183645670Y-131510935D01*
X183328469Y-131327902D01*
X183021908Y-131151090D01*
X182727959Y-130981640D01*
X182448592Y-130820690D01*
X182185778Y-130669379D01*
X181941488Y-130528847D01*
X181717693Y-130400233D01*
X181516363Y-130284677D01*
X181339469Y-130183318D01*
X181188983Y-130097295D01*
X181066874Y-130027747D01*
X180975114Y-129975814D01*
X180915674Y-129942636D01*
X180890523Y-129929351D01*
X180889788Y-129929161D01*
X180875023Y-129952585D01*
X180840541Y-130010455D01*
X180787478Y-130100797D01*
X180716968Y-130221637D01*
X180630146Y-130370999D01*
X180528145Y-130546910D01*
X180412100Y-130747395D01*
X180283145Y-130970479D01*
X180142415Y-131214187D01*
X179991044Y-131476545D01*
X179830167Y-131755578D01*
X179660917Y-132049312D01*
X179484430Y-132355771D01*
X179301839Y-132672982D01*
X179114278Y-132998970D01*
X178922883Y-133331760D01*
X178728788Y-133669377D01*
X178533126Y-134009847D01*
X178337033Y-134351195D01*
X178141642Y-134691447D01*
X177948088Y-135028628D01*
X177757506Y-135360763D01*
X177571029Y-135685878D01*
X177389792Y-136001998D01*
X177214929Y-136307148D01*
X177047576Y-136599355D01*
X176888865Y-136876642D01*
X176739931Y-137137036D01*
X176601910Y-137378562D01*
X176475934Y-137599246D01*
X176363139Y-137797112D01*
X176264659Y-137970186D01*
X176181628Y-138116494D01*
X176115181Y-138234060D01*
X176066451Y-138320911D01*
X176036574Y-138375071D01*
X176026683Y-138394567D01*
X171355388Y-138394567D01*
X174958158Y-132152525D01*
X175263920Y-131622866D01*
X175564393Y-131102553D01*
X175858883Y-130592783D01*
X176146695Y-130094753D01*
X176427134Y-129609662D01*
X176699506Y-129138706D01*
X176963116Y-128683083D01*
X177217269Y-128243991D01*
X177461270Y-127822627D01*
X177694426Y-127420188D01*
X177916040Y-127037872D01*
X178125419Y-126676876D01*
X178321868Y-126338398D01*
X178504691Y-126023636D01*
X178673195Y-125733786D01*
X178826685Y-125470046D01*
X178964465Y-125233613D01*
X179085841Y-125025686D01*
X179190119Y-124847461D01*
X179276603Y-124700136D01*
X179344600Y-124584909D01*
X179393413Y-124502976D01*
X179422350Y-124455536D01*
X179430762Y-124443213D01*
X179450216Y-124453640D01*
G36*
X170189500Y-137291000D02*
G01*
X152367167Y-137291000D01*
X152367167Y-123490333D01*
X156388834Y-123490333D01*
X156388834Y-133269333D01*
X166167834Y-133269333D01*
X166167834Y-123490333D01*
X156388834Y-123490333D01*
X152367167Y-123490333D01*
X152367167Y-119468666D01*
X170189500Y-119468666D01*
X170189500Y-137291000D01*
G37*
X170189500Y-137291000D02*
X152367167Y-137291000D01*
X152367167Y-123490333D01*
X156388834Y-123490333D01*
X156388834Y-133269333D01*
X166167834Y-133269333D01*
X166167834Y-123490333D01*
X156388834Y-123490333D01*
X152367167Y-123490333D01*
X152367167Y-119468666D01*
X170189500Y-119468666D01*
X170189500Y-137291000D01*
G36*
X151139500Y-134899166D02*
G01*
X133317167Y-134899166D01*
X133317167Y-121098500D01*
X137338834Y-121098500D01*
X137338834Y-130877500D01*
X147117834Y-130877500D01*
X147117834Y-121098500D01*
X137338834Y-121098500D01*
X133317167Y-121098500D01*
X133317167Y-117076833D01*
X151139500Y-117076833D01*
X151139500Y-134899166D01*
G37*
X151139500Y-134899166D02*
X133317167Y-134899166D01*
X133317167Y-121098500D01*
X137338834Y-121098500D01*
X137338834Y-130877500D01*
X147117834Y-130877500D01*
X147117834Y-121098500D01*
X137338834Y-121098500D01*
X133317167Y-121098500D01*
X133317167Y-117076833D01*
X151139500Y-117076833D01*
X151139500Y-134899166D01*
G36*
X188940690Y-107960085D02*
G01*
X188962870Y-107969567D01*
X188999478Y-107987569D01*
X189051396Y-108014592D01*
X189119501Y-108051140D01*
X189204674Y-108097716D01*
X189307793Y-108154823D01*
X189429738Y-108222964D01*
X189571388Y-108302641D01*
X189733623Y-108394359D01*
X189917322Y-108498620D01*
X190123363Y-108615926D01*
X190352628Y-108746782D01*
X190605994Y-108891689D01*
X190884341Y-109051152D01*
X191188548Y-109225673D01*
X191519495Y-109415754D01*
X191878061Y-109621900D01*
X192265125Y-109844613D01*
X192681567Y-110084396D01*
X193128266Y-110341752D01*
X193606101Y-110617185D01*
X194115952Y-110911196D01*
X194658697Y-111224290D01*
X195235217Y-111556969D01*
X195846390Y-111909736D01*
X196493095Y-112283094D01*
X196659846Y-112379375D01*
X197189292Y-112685086D01*
X197709427Y-112985435D01*
X198219053Y-113279730D01*
X198716972Y-113567276D01*
X199201985Y-113847383D01*
X199672891Y-114119356D01*
X200128494Y-114382504D01*
X200567594Y-114636133D01*
X200988991Y-114879552D01*
X201391488Y-115112067D01*
X201773886Y-115332986D01*
X202134985Y-115541615D01*
X202473586Y-115737263D01*
X202788492Y-115919237D01*
X203078502Y-116086844D01*
X203342419Y-116239391D01*
X203579043Y-116376186D01*
X203787176Y-116496536D01*
X203965618Y-116599748D01*
X204113171Y-116685130D01*
X204228636Y-116751989D01*
X204310814Y-116799633D01*
X204358506Y-116827368D01*
X204371038Y-116834767D01*
X204361184Y-116853413D01*
X204330985Y-116907251D01*
X204281283Y-116994819D01*
X204212922Y-117114659D01*
X204126742Y-117265312D01*
X204023587Y-117445318D01*
X203904298Y-117653217D01*
X203769717Y-117887550D01*
X203620687Y-118146858D01*
X203458051Y-118429681D01*
X203282649Y-118734561D01*
X203095325Y-119060036D01*
X202896921Y-119404649D01*
X202688278Y-119766939D01*
X202470239Y-120145448D01*
X202243647Y-120538715D01*
X202009343Y-120945281D01*
X201768169Y-121363687D01*
X201520969Y-121792474D01*
X201268583Y-122230182D01*
X201011855Y-122675352D01*
X200751626Y-123126523D01*
X200488739Y-123582238D01*
X200224035Y-124041036D01*
X199958358Y-124501458D01*
X199692549Y-124962044D01*
X199427450Y-125421336D01*
X199163904Y-125877873D01*
X198902753Y-126330196D01*
X198644839Y-126776846D01*
X198391004Y-127216364D01*
X198142091Y-127647289D01*
X197898942Y-128068164D01*
X197662398Y-128477527D01*
X197433302Y-128873920D01*
X197212497Y-129255883D01*
X197000824Y-129621957D01*
X196799126Y-129970683D01*
X196608245Y-130300600D01*
X196429022Y-130610251D01*
X196262302Y-130898174D01*
X196108924Y-131162911D01*
X195969733Y-131403003D01*
X195845569Y-131616989D01*
X195737275Y-131803411D01*
X195645694Y-131960809D01*
X195571667Y-132087724D01*
X195516037Y-132182695D01*
X195479646Y-132244265D01*
X195463336Y-132270973D01*
X195462500Y-132272033D01*
X195443640Y-132261459D01*
X195389327Y-132230396D01*
X195300759Y-132179535D01*
X195179136Y-132109568D01*
X195025657Y-132021188D01*
X194841521Y-131915087D01*
X194627928Y-131791956D01*
X194386077Y-131652489D01*
X194117167Y-131497378D01*
X193822397Y-131327313D01*
X193502967Y-131142989D01*
X193160076Y-130945096D01*
X192794923Y-130734327D01*
X192408708Y-130511374D01*
X192002629Y-130276930D01*
X191577886Y-130031686D01*
X191135678Y-129776334D01*
X190677204Y-129511568D01*
X190203664Y-129238078D01*
X189716257Y-128956558D01*
X189216182Y-128667698D01*
X188704639Y-128372192D01*
X188182826Y-128070732D01*
X187752773Y-127822267D01*
X187223523Y-127516432D01*
X186703614Y-127215900D01*
X186194244Y-126921365D01*
X185696611Y-126633522D01*
X185211913Y-126353068D01*
X184741347Y-126080696D01*
X184286111Y-125817103D01*
X183847404Y-125562984D01*
X183426423Y-125319034D01*
X183024365Y-125085948D01*
X182642430Y-124864422D01*
X182281813Y-124655150D01*
X181943714Y-124458829D01*
X181629330Y-124276153D01*
X181339859Y-124107818D01*
X181076499Y-123954519D01*
X180840447Y-123816951D01*
X180632901Y-123695809D01*
X180455060Y-123591789D01*
X180308121Y-123505586D01*
X180193281Y-123437896D01*
X180111739Y-123389413D01*
X180064693Y-123360833D01*
X180052695Y-123352750D01*
X180063081Y-123333275D01*
X180093801Y-123278608D01*
X180144010Y-123190213D01*
X180212863Y-123069555D01*
X180299517Y-122918095D01*
X180403126Y-122737299D01*
X180522847Y-122528630D01*
X180657836Y-122293552D01*
X180807248Y-122033529D01*
X180884970Y-121898338D01*
X185548976Y-121898338D01*
X185568724Y-121909493D01*
X185623484Y-121940909D01*
X185711627Y-121991646D01*
X185831524Y-122060761D01*
X185981547Y-122147313D01*
X186160066Y-122250361D01*
X186365452Y-122368965D01*
X186596077Y-122502182D01*
X186850311Y-122649072D01*
X187126525Y-122808693D01*
X187423091Y-122980104D01*
X187738379Y-123162364D01*
X188070761Y-123354532D01*
X188418608Y-123555665D01*
X188780290Y-123764824D01*
X189154178Y-123981067D01*
X189538645Y-124203453D01*
X189768667Y-124336515D01*
X190158534Y-124561990D01*
X190538782Y-124781779D01*
X190907784Y-124994947D01*
X191263911Y-125200557D01*
X191605535Y-125397673D01*
X191931027Y-125585358D01*
X192238759Y-125762676D01*
X192527102Y-125928691D01*
X192794429Y-126082466D01*
X193039112Y-126223065D01*
X193259521Y-126349552D01*
X193454028Y-126460989D01*
X193621006Y-126556441D01*
X193758825Y-126634972D01*
X193865858Y-126695645D01*
X193940476Y-126737523D01*
X193981051Y-126759670D01*
X193988362Y-126763104D01*
X194000964Y-126744622D01*
X194033437Y-126691605D01*
X194084524Y-126606206D01*
X194152969Y-126490574D01*
X194237517Y-126346861D01*
X194336912Y-126177217D01*
X194449897Y-125983793D01*
X194575217Y-125768741D01*
X194711616Y-125534210D01*
X194857839Y-125282353D01*
X195012628Y-125015319D01*
X195174728Y-124735260D01*
X195342883Y-124444327D01*
X195393069Y-124357420D01*
X195588085Y-124019639D01*
X195793886Y-123663177D01*
X196007600Y-123293008D01*
X196226355Y-122914105D01*
X196447281Y-122531442D01*
X196667505Y-122149994D01*
X196884156Y-121774734D01*
X197094361Y-121410637D01*
X197295250Y-121062676D01*
X197483951Y-120735826D01*
X197657592Y-120435059D01*
X197813301Y-120165351D01*
X197831589Y-120133674D01*
X198883515Y-118311598D01*
X194672157Y-115879174D01*
X194281641Y-115653651D01*
X193900702Y-115433725D01*
X193530970Y-115220336D01*
X193174077Y-115014421D01*
X192831652Y-114816920D01*
X192505327Y-114628772D01*
X192196733Y-114450915D01*
X191907500Y-114284289D01*
X191639259Y-114129832D01*
X191393640Y-113988483D01*
X191172275Y-113861180D01*
X190976795Y-113748864D01*
X190808830Y-113652472D01*
X190670010Y-113572944D01*
X190561967Y-113511219D01*
X190486332Y-113468234D01*
X190444734Y-113444930D01*
X190436787Y-113440783D01*
X190424149Y-113458217D01*
X190391598Y-113510353D01*
X190340272Y-113595219D01*
X190271310Y-113710849D01*
X190185848Y-113855272D01*
X190085026Y-114026520D01*
X189969980Y-114222623D01*
X189841849Y-114441613D01*
X189701771Y-114681521D01*
X189550884Y-114940377D01*
X189390325Y-115216213D01*
X189221233Y-115507059D01*
X189044745Y-115810948D01*
X188862000Y-116125909D01*
X188674135Y-116449973D01*
X188482288Y-116781173D01*
X188287597Y-117117537D01*
X188091201Y-117457099D01*
X187894236Y-117797888D01*
X187697842Y-118137936D01*
X187503155Y-118475274D01*
X187311314Y-118807932D01*
X187123457Y-119133942D01*
X186940722Y-119451335D01*
X186764246Y-119758142D01*
X186595168Y-120052393D01*
X186434625Y-120332120D01*
X186283756Y-120595353D01*
X186143698Y-120840124D01*
X186015589Y-121064464D01*
X185900567Y-121266404D01*
X185799770Y-121443974D01*
X185714337Y-121595206D01*
X185645404Y-121718131D01*
X185594111Y-121810780D01*
X185561594Y-121871183D01*
X185548991Y-121897372D01*
X185548976Y-121898338D01*
X180884970Y-121898338D01*
X180970238Y-121750024D01*
X181145963Y-121444500D01*
X181333578Y-121118423D01*
X181532239Y-120773255D01*
X181741102Y-120410461D01*
X181959322Y-120031504D01*
X182186055Y-119637848D01*
X182420457Y-119230956D01*
X182661683Y-118812293D01*
X182908889Y-118383322D01*
X183161231Y-117945507D01*
X183417864Y-117500311D01*
X183677945Y-117049199D01*
X183940629Y-116593634D01*
X184205071Y-116135080D01*
X184470427Y-115675001D01*
X184735854Y-115214860D01*
X185000506Y-114756122D01*
X185263539Y-114300249D01*
X185524110Y-113848706D01*
X185781374Y-113402957D01*
X186034486Y-112964465D01*
X186282602Y-112534694D01*
X186524878Y-112115108D01*
X186760470Y-111707170D01*
X186988533Y-111312345D01*
X187208223Y-110932096D01*
X187418696Y-110567886D01*
X187619107Y-110221180D01*
X187808613Y-109893442D01*
X187986368Y-109586134D01*
X188151529Y-109300721D01*
X188303251Y-109038667D01*
X188440690Y-108801436D01*
X188563001Y-108590490D01*
X188669341Y-108407294D01*
X188758865Y-108253312D01*
X188830729Y-108130008D01*
X188884088Y-108038844D01*
X188918098Y-107981286D01*
X188931915Y-107958796D01*
X188932061Y-107958618D01*
X188940690Y-107960085D01*
G37*
X188940690Y-107960085D02*
X188962870Y-107969567D01*
X188999478Y-107987569D01*
X189051396Y-108014592D01*
X189119501Y-108051140D01*
X189204674Y-108097716D01*
X189307793Y-108154823D01*
X189429738Y-108222964D01*
X189571388Y-108302641D01*
X189733623Y-108394359D01*
X189917322Y-108498620D01*
X190123363Y-108615926D01*
X190352628Y-108746782D01*
X190605994Y-108891689D01*
X190884341Y-109051152D01*
X191188548Y-109225673D01*
X191519495Y-109415754D01*
X191878061Y-109621900D01*
X192265125Y-109844613D01*
X192681567Y-110084396D01*
X193128266Y-110341752D01*
X193606101Y-110617185D01*
X194115952Y-110911196D01*
X194658697Y-111224290D01*
X195235217Y-111556969D01*
X195846390Y-111909736D01*
X196493095Y-112283094D01*
X196659846Y-112379375D01*
X197189292Y-112685086D01*
X197709427Y-112985435D01*
X198219053Y-113279730D01*
X198716972Y-113567276D01*
X199201985Y-113847383D01*
X199672891Y-114119356D01*
X200128494Y-114382504D01*
X200567594Y-114636133D01*
X200988991Y-114879552D01*
X201391488Y-115112067D01*
X201773886Y-115332986D01*
X202134985Y-115541615D01*
X202473586Y-115737263D01*
X202788492Y-115919237D01*
X203078502Y-116086844D01*
X203342419Y-116239391D01*
X203579043Y-116376186D01*
X203787176Y-116496536D01*
X203965618Y-116599748D01*
X204113171Y-116685130D01*
X204228636Y-116751989D01*
X204310814Y-116799633D01*
X204358506Y-116827368D01*
X204371038Y-116834767D01*
X204361184Y-116853413D01*
X204330985Y-116907251D01*
X204281283Y-116994819D01*
X204212922Y-117114659D01*
X204126742Y-117265312D01*
X204023587Y-117445318D01*
X203904298Y-117653217D01*
X203769717Y-117887550D01*
X203620687Y-118146858D01*
X203458051Y-118429681D01*
X203282649Y-118734561D01*
X203095325Y-119060036D01*
X202896921Y-119404649D01*
X202688278Y-119766939D01*
X202470239Y-120145448D01*
X202243647Y-120538715D01*
X202009343Y-120945281D01*
X201768169Y-121363687D01*
X201520969Y-121792474D01*
X201268583Y-122230182D01*
X201011855Y-122675352D01*
X200751626Y-123126523D01*
X200488739Y-123582238D01*
X200224035Y-124041036D01*
X199958358Y-124501458D01*
X199692549Y-124962044D01*
X199427450Y-125421336D01*
X199163904Y-125877873D01*
X198902753Y-126330196D01*
X198644839Y-126776846D01*
X198391004Y-127216364D01*
X198142091Y-127647289D01*
X197898942Y-128068164D01*
X197662398Y-128477527D01*
X197433302Y-128873920D01*
X197212497Y-129255883D01*
X197000824Y-129621957D01*
X196799126Y-129970683D01*
X196608245Y-130300600D01*
X196429022Y-130610251D01*
X196262302Y-130898174D01*
X196108924Y-131162911D01*
X195969733Y-131403003D01*
X195845569Y-131616989D01*
X195737275Y-131803411D01*
X195645694Y-131960809D01*
X195571667Y-132087724D01*
X195516037Y-132182695D01*
X195479646Y-132244265D01*
X195463336Y-132270973D01*
X195462500Y-132272033D01*
X195443640Y-132261459D01*
X195389327Y-132230396D01*
X195300759Y-132179535D01*
X195179136Y-132109568D01*
X195025657Y-132021188D01*
X194841521Y-131915087D01*
X194627928Y-131791956D01*
X194386077Y-131652489D01*
X194117167Y-131497378D01*
X193822397Y-131327313D01*
X193502967Y-131142989D01*
X193160076Y-130945096D01*
X192794923Y-130734327D01*
X192408708Y-130511374D01*
X192002629Y-130276930D01*
X191577886Y-130031686D01*
X191135678Y-129776334D01*
X190677204Y-129511568D01*
X190203664Y-129238078D01*
X189716257Y-128956558D01*
X189216182Y-128667698D01*
X188704639Y-128372192D01*
X188182826Y-128070732D01*
X187752773Y-127822267D01*
X187223523Y-127516432D01*
X186703614Y-127215900D01*
X186194244Y-126921365D01*
X185696611Y-126633522D01*
X185211913Y-126353068D01*
X184741347Y-126080696D01*
X184286111Y-125817103D01*
X183847404Y-125562984D01*
X183426423Y-125319034D01*
X183024365Y-125085948D01*
X182642430Y-124864422D01*
X182281813Y-124655150D01*
X181943714Y-124458829D01*
X181629330Y-124276153D01*
X181339859Y-124107818D01*
X181076499Y-123954519D01*
X180840447Y-123816951D01*
X180632901Y-123695809D01*
X180455060Y-123591789D01*
X180308121Y-123505586D01*
X180193281Y-123437896D01*
X180111739Y-123389413D01*
X180064693Y-123360833D01*
X180052695Y-123352750D01*
X180063081Y-123333275D01*
X180093801Y-123278608D01*
X180144010Y-123190213D01*
X180212863Y-123069555D01*
X180299517Y-122918095D01*
X180403126Y-122737299D01*
X180522847Y-122528630D01*
X180657836Y-122293552D01*
X180807248Y-122033529D01*
X180884970Y-121898338D01*
X185548976Y-121898338D01*
X185568724Y-121909493D01*
X185623484Y-121940909D01*
X185711627Y-121991646D01*
X185831524Y-122060761D01*
X185981547Y-122147313D01*
X186160066Y-122250361D01*
X186365452Y-122368965D01*
X186596077Y-122502182D01*
X186850311Y-122649072D01*
X187126525Y-122808693D01*
X187423091Y-122980104D01*
X187738379Y-123162364D01*
X188070761Y-123354532D01*
X188418608Y-123555665D01*
X188780290Y-123764824D01*
X189154178Y-123981067D01*
X189538645Y-124203453D01*
X189768667Y-124336515D01*
X190158534Y-124561990D01*
X190538782Y-124781779D01*
X190907784Y-124994947D01*
X191263911Y-125200557D01*
X191605535Y-125397673D01*
X191931027Y-125585358D01*
X192238759Y-125762676D01*
X192527102Y-125928691D01*
X192794429Y-126082466D01*
X193039112Y-126223065D01*
X193259521Y-126349552D01*
X193454028Y-126460989D01*
X193621006Y-126556441D01*
X193758825Y-126634972D01*
X193865858Y-126695645D01*
X193940476Y-126737523D01*
X193981051Y-126759670D01*
X193988362Y-126763104D01*
X194000964Y-126744622D01*
X194033437Y-126691605D01*
X194084524Y-126606206D01*
X194152969Y-126490574D01*
X194237517Y-126346861D01*
X194336912Y-126177217D01*
X194449897Y-125983793D01*
X194575217Y-125768741D01*
X194711616Y-125534210D01*
X194857839Y-125282353D01*
X195012628Y-125015319D01*
X195174728Y-124735260D01*
X195342883Y-124444327D01*
X195393069Y-124357420D01*
X195588085Y-124019639D01*
X195793886Y-123663177D01*
X196007600Y-123293008D01*
X196226355Y-122914105D01*
X196447281Y-122531442D01*
X196667505Y-122149994D01*
X196884156Y-121774734D01*
X197094361Y-121410637D01*
X197295250Y-121062676D01*
X197483951Y-120735826D01*
X197657592Y-120435059D01*
X197813301Y-120165351D01*
X197831589Y-120133674D01*
X198883515Y-118311598D01*
X194672157Y-115879174D01*
X194281641Y-115653651D01*
X193900702Y-115433725D01*
X193530970Y-115220336D01*
X193174077Y-115014421D01*
X192831652Y-114816920D01*
X192505327Y-114628772D01*
X192196733Y-114450915D01*
X191907500Y-114284289D01*
X191639259Y-114129832D01*
X191393640Y-113988483D01*
X191172275Y-113861180D01*
X190976795Y-113748864D01*
X190808830Y-113652472D01*
X190670010Y-113572944D01*
X190561967Y-113511219D01*
X190486332Y-113468234D01*
X190444734Y-113444930D01*
X190436787Y-113440783D01*
X190424149Y-113458217D01*
X190391598Y-113510353D01*
X190340272Y-113595219D01*
X190271310Y-113710849D01*
X190185848Y-113855272D01*
X190085026Y-114026520D01*
X189969980Y-114222623D01*
X189841849Y-114441613D01*
X189701771Y-114681521D01*
X189550884Y-114940377D01*
X189390325Y-115216213D01*
X189221233Y-115507059D01*
X189044745Y-115810948D01*
X188862000Y-116125909D01*
X188674135Y-116449973D01*
X188482288Y-116781173D01*
X188287597Y-117117537D01*
X188091201Y-117457099D01*
X187894236Y-117797888D01*
X187697842Y-118137936D01*
X187503155Y-118475274D01*
X187311314Y-118807932D01*
X187123457Y-119133942D01*
X186940722Y-119451335D01*
X186764246Y-119758142D01*
X186595168Y-120052393D01*
X186434625Y-120332120D01*
X186283756Y-120595353D01*
X186143698Y-120840124D01*
X186015589Y-121064464D01*
X185900567Y-121266404D01*
X185799770Y-121443974D01*
X185714337Y-121595206D01*
X185645404Y-121718131D01*
X185594111Y-121810780D01*
X185561594Y-121871183D01*
X185548991Y-121897372D01*
X185548976Y-121898338D01*
X180884970Y-121898338D01*
X180970238Y-121750024D01*
X181145963Y-121444500D01*
X181333578Y-121118423D01*
X181532239Y-120773255D01*
X181741102Y-120410461D01*
X181959322Y-120031504D01*
X182186055Y-119637848D01*
X182420457Y-119230956D01*
X182661683Y-118812293D01*
X182908889Y-118383322D01*
X183161231Y-117945507D01*
X183417864Y-117500311D01*
X183677945Y-117049199D01*
X183940629Y-116593634D01*
X184205071Y-116135080D01*
X184470427Y-115675001D01*
X184735854Y-115214860D01*
X185000506Y-114756122D01*
X185263539Y-114300249D01*
X185524110Y-113848706D01*
X185781374Y-113402957D01*
X186034486Y-112964465D01*
X186282602Y-112534694D01*
X186524878Y-112115108D01*
X186760470Y-111707170D01*
X186988533Y-111312345D01*
X187208223Y-110932096D01*
X187418696Y-110567886D01*
X187619107Y-110221180D01*
X187808613Y-109893442D01*
X187986368Y-109586134D01*
X188151529Y-109300721D01*
X188303251Y-109038667D01*
X188440690Y-108801436D01*
X188563001Y-108590490D01*
X188669341Y-108407294D01*
X188758865Y-108253312D01*
X188830729Y-108130008D01*
X188884088Y-108038844D01*
X188918098Y-107981286D01*
X188931915Y-107958796D01*
X188932061Y-107958618D01*
X188940690Y-107960085D01*
G36*
X84464500Y-118241000D02*
G01*
X66642167Y-118241000D01*
X66642167Y-104440333D01*
X70663834Y-104440333D01*
X70663834Y-114219333D01*
X80442834Y-114219333D01*
X80442834Y-104440333D01*
X70663834Y-104440333D01*
X66642167Y-104440333D01*
X66642167Y-100418666D01*
X84464500Y-100418666D01*
X84464500Y-118241000D01*
G37*
X84464500Y-118241000D02*
X66642167Y-118241000D01*
X66642167Y-104440333D01*
X70663834Y-104440333D01*
X70663834Y-114219333D01*
X80442834Y-114219333D01*
X80442834Y-104440333D01*
X70663834Y-104440333D01*
X66642167Y-104440333D01*
X66642167Y-100418666D01*
X84464500Y-100418666D01*
X84464500Y-118241000D01*
G36*
X103514500Y-118241000D02*
G01*
X85692167Y-118241000D01*
X85692167Y-104440333D01*
X89713834Y-104440333D01*
X89713834Y-114219333D01*
X99492834Y-114219333D01*
X99492834Y-104440333D01*
X89713834Y-104440333D01*
X85692167Y-104440333D01*
X85692167Y-100418666D01*
X103514500Y-100418666D01*
X103514500Y-118241000D01*
G37*
X103514500Y-118241000D02*
X85692167Y-118241000D01*
X85692167Y-104440333D01*
X89713834Y-104440333D01*
X89713834Y-114219333D01*
X99492834Y-114219333D01*
X99492834Y-104440333D01*
X89713834Y-104440333D01*
X85692167Y-104440333D01*
X85692167Y-100418666D01*
X103514500Y-100418666D01*
X103514500Y-118241000D01*
G36*
X179714500Y-115849166D02*
G01*
X161892167Y-115849166D01*
X161892167Y-102048500D01*
X165913834Y-102048500D01*
X165913834Y-111827500D01*
X175692834Y-111827500D01*
X175692834Y-102048500D01*
X165913834Y-102048500D01*
X161892167Y-102048500D01*
X161892167Y-98026833D01*
X179714500Y-98026833D01*
X179714500Y-115849166D01*
G37*
X179714500Y-115849166D02*
X161892167Y-115849166D01*
X161892167Y-102048500D01*
X165913834Y-102048500D01*
X165913834Y-111827500D01*
X175692834Y-111827500D01*
X175692834Y-102048500D01*
X165913834Y-102048500D01*
X161892167Y-102048500D01*
X161892167Y-98026833D01*
X179714500Y-98026833D01*
X179714500Y-115849166D01*
G36*
X122564500Y-113478500D02*
G01*
X104742167Y-113478500D01*
X104742167Y-99677833D01*
X108763834Y-99677833D01*
X108763834Y-109456833D01*
X118542834Y-109456833D01*
X118542834Y-99677833D01*
X108763834Y-99677833D01*
X104742167Y-99677833D01*
X104742167Y-95656166D01*
X122564500Y-95656166D01*
X122564500Y-113478500D01*
G37*
X122564500Y-113478500D02*
X104742167Y-113478500D01*
X104742167Y-99677833D01*
X108763834Y-99677833D01*
X108763834Y-109456833D01*
X118542834Y-109456833D01*
X118542834Y-99677833D01*
X108763834Y-99677833D01*
X104742167Y-99677833D01*
X104742167Y-95656166D01*
X122564500Y-95656166D01*
X122564500Y-113478500D01*
G36*
X160664500Y-113478500D02*
G01*
X142842167Y-113478500D01*
X142842167Y-99677833D01*
X146863834Y-99677833D01*
X146863834Y-109456833D01*
X156642834Y-109456833D01*
X156642834Y-99677833D01*
X146863834Y-99677833D01*
X142842167Y-99677833D01*
X142842167Y-95656166D01*
X160664500Y-95656166D01*
X160664500Y-113478500D01*
G37*
X160664500Y-113478500D02*
X142842167Y-113478500D01*
X142842167Y-99677833D01*
X146863834Y-99677833D01*
X146863834Y-109456833D01*
X156642834Y-109456833D01*
X156642834Y-99677833D01*
X146863834Y-99677833D01*
X142842167Y-99677833D01*
X142842167Y-95656166D01*
X160664500Y-95656166D01*
X160664500Y-113478500D01*
G36*
X141614500Y-111086666D02*
G01*
X123792167Y-111086666D01*
X123792167Y-97286000D01*
X127813834Y-97286000D01*
X127813834Y-107065000D01*
X137592834Y-107065000D01*
X137592834Y-97286000D01*
X127813834Y-97286000D01*
X123792167Y-97286000D01*
X123792167Y-93264333D01*
X141614500Y-93264333D01*
X141614500Y-111086666D01*
G37*
X141614500Y-111086666D02*
X123792167Y-111086666D01*
X123792167Y-97286000D01*
X127813834Y-97286000D01*
X127813834Y-107065000D01*
X137592834Y-107065000D01*
X137592834Y-97286000D01*
X127813834Y-97286000D01*
X123792167Y-97286000D01*
X123792167Y-93264333D01*
X141614500Y-93264333D01*
X141614500Y-111086666D01*
G36*
X84464500Y-99191000D02*
G01*
X66642167Y-99191000D01*
X66642167Y-85390333D01*
X70663834Y-85390333D01*
X70663834Y-95169333D01*
X80442834Y-95169333D01*
X80442834Y-85390333D01*
X70663834Y-85390333D01*
X66642167Y-85390333D01*
X66642167Y-81368666D01*
X84464500Y-81368666D01*
X84464500Y-99191000D01*
G37*
X84464500Y-99191000D02*
X66642167Y-99191000D01*
X66642167Y-85390333D01*
X70663834Y-85390333D01*
X70663834Y-95169333D01*
X80442834Y-95169333D01*
X80442834Y-85390333D01*
X70663834Y-85390333D01*
X66642167Y-85390333D01*
X66642167Y-81368666D01*
X84464500Y-81368666D01*
X84464500Y-99191000D01*
G36*
X103514500Y-99191000D02*
G01*
X85692167Y-99191000D01*
X85692167Y-85390333D01*
X89713834Y-85390333D01*
X89713834Y-95169333D01*
X99492834Y-95169333D01*
X99492834Y-85390333D01*
X89713834Y-85390333D01*
X85692167Y-85390333D01*
X85692167Y-81368666D01*
X103514500Y-81368666D01*
X103514500Y-99191000D01*
G37*
X103514500Y-99191000D02*
X85692167Y-99191000D01*
X85692167Y-85390333D01*
X89713834Y-85390333D01*
X89713834Y-95169333D01*
X99492834Y-95169333D01*
X99492834Y-85390333D01*
X89713834Y-85390333D01*
X85692167Y-85390333D01*
X85692167Y-81368666D01*
X103514500Y-81368666D01*
X103514500Y-99191000D01*
G36*
X179714500Y-96799166D02*
G01*
X161892167Y-96799166D01*
X161892167Y-82998500D01*
X165913834Y-82998500D01*
X165913834Y-92777500D01*
X175692834Y-92777500D01*
X175692834Y-82998500D01*
X165913834Y-82998500D01*
X161892167Y-82998500D01*
X161892167Y-78976833D01*
X179714500Y-78976833D01*
X179714500Y-96799166D01*
G37*
X179714500Y-96799166D02*
X161892167Y-96799166D01*
X161892167Y-82998500D01*
X165913834Y-82998500D01*
X165913834Y-92777500D01*
X175692834Y-92777500D01*
X175692834Y-82998500D01*
X165913834Y-82998500D01*
X161892167Y-82998500D01*
X161892167Y-78976833D01*
X179714500Y-78976833D01*
X179714500Y-96799166D01*
G36*
X122559233Y-85512041D02*
G01*
X122553917Y-94417916D01*
X113648042Y-94423233D01*
X104742167Y-94428549D01*
X104742167Y-80627833D01*
X108763834Y-80627833D01*
X108763834Y-90406833D01*
X118542834Y-90406833D01*
X118542834Y-80627833D01*
X108763834Y-80627833D01*
X104742167Y-80627833D01*
X104742167Y-76606166D01*
X122564550Y-76606166D01*
X122559233Y-85512041D01*
G37*
X122559233Y-85512041D02*
X122553917Y-94417916D01*
X113648042Y-94423233D01*
X104742167Y-94428549D01*
X104742167Y-80627833D01*
X108763834Y-80627833D01*
X108763834Y-90406833D01*
X118542834Y-90406833D01*
X118542834Y-80627833D01*
X108763834Y-80627833D01*
X104742167Y-80627833D01*
X104742167Y-76606166D01*
X122564550Y-76606166D01*
X122559233Y-85512041D01*
G36*
X160659233Y-85512041D02*
G01*
X160653917Y-94417916D01*
X151748042Y-94423233D01*
X142842167Y-94428549D01*
X142842167Y-80627833D01*
X146863834Y-80627833D01*
X146863834Y-90406833D01*
X156642834Y-90406833D01*
X156642834Y-80627833D01*
X146863834Y-80627833D01*
X142842167Y-80627833D01*
X142842167Y-76606166D01*
X160664550Y-76606166D01*
X160659233Y-85512041D01*
G37*
X160659233Y-85512041D02*
X160653917Y-94417916D01*
X151748042Y-94423233D01*
X142842167Y-94428549D01*
X142842167Y-80627833D01*
X146863834Y-80627833D01*
X146863834Y-90406833D01*
X156642834Y-90406833D01*
X156642834Y-80627833D01*
X146863834Y-80627833D01*
X142842167Y-80627833D01*
X142842167Y-76606166D01*
X160664550Y-76606166D01*
X160659233Y-85512041D01*
G36*
X141614500Y-92036666D02*
G01*
X123792167Y-92036666D01*
X123792167Y-78236000D01*
X127813834Y-78236000D01*
X127813834Y-88015000D01*
X137592834Y-88015000D01*
X137592834Y-78236000D01*
X127813834Y-78236000D01*
X123792167Y-78236000D01*
X123792167Y-74214333D01*
X141614500Y-74214333D01*
X141614500Y-92036666D01*
G37*
X141614500Y-92036666D02*
X123792167Y-92036666D01*
X123792167Y-78236000D01*
X127813834Y-78236000D01*
X127813834Y-88015000D01*
X137592834Y-88015000D01*
X137592834Y-78236000D01*
X127813834Y-78236000D01*
X123792167Y-78236000D01*
X123792167Y-74214333D01*
X141614500Y-74214333D01*
X141614500Y-92036666D01*
G36*
X84464500Y-80119833D02*
G01*
X66642167Y-80119833D01*
X66642167Y-66319166D01*
X70663834Y-66319166D01*
X70663834Y-76119333D01*
X80442834Y-76119333D01*
X80442834Y-66319166D01*
X70663834Y-66319166D01*
X66642167Y-66319166D01*
X66642167Y-62318666D01*
X84464500Y-62318666D01*
X84464500Y-80119833D01*
G37*
X84464500Y-80119833D02*
X66642167Y-80119833D01*
X66642167Y-66319166D01*
X70663834Y-66319166D01*
X70663834Y-76119333D01*
X80442834Y-76119333D01*
X80442834Y-66319166D01*
X70663834Y-66319166D01*
X66642167Y-66319166D01*
X66642167Y-62318666D01*
X84464500Y-62318666D01*
X84464500Y-80119833D01*
G36*
X103514500Y-80119833D02*
G01*
X85692167Y-80119833D01*
X85692167Y-66319166D01*
X89713834Y-66319166D01*
X89713834Y-76119333D01*
X99492834Y-76119333D01*
X99492834Y-66319166D01*
X89713834Y-66319166D01*
X85692167Y-66319166D01*
X85692167Y-62318666D01*
X103514500Y-62318666D01*
X103514500Y-80119833D01*
G37*
X103514500Y-80119833D02*
X85692167Y-80119833D01*
X85692167Y-66319166D01*
X89713834Y-66319166D01*
X89713834Y-76119333D01*
X99492834Y-76119333D01*
X99492834Y-66319166D01*
X89713834Y-66319166D01*
X85692167Y-66319166D01*
X85692167Y-62318666D01*
X103514500Y-62318666D01*
X103514500Y-80119833D01*
G36*
X179714500Y-77749166D02*
G01*
X161892167Y-77749166D01*
X161892167Y-63948500D01*
X165913834Y-63948500D01*
X165913834Y-73727500D01*
X175692834Y-73727500D01*
X175692834Y-63948500D01*
X165913834Y-63948500D01*
X161892167Y-63948500D01*
X161892167Y-59926833D01*
X179714500Y-59926833D01*
X179714500Y-77749166D01*
G37*
X179714500Y-77749166D02*
X161892167Y-77749166D01*
X161892167Y-63948500D01*
X165913834Y-63948500D01*
X165913834Y-73727500D01*
X175692834Y-73727500D01*
X175692834Y-63948500D01*
X165913834Y-63948500D01*
X161892167Y-63948500D01*
X161892167Y-59926833D01*
X179714500Y-59926833D01*
X179714500Y-77749166D01*
G36*
X122564500Y-75357333D02*
G01*
X104742167Y-75357333D01*
X104742167Y-61556666D01*
X108763834Y-61556666D01*
X108763834Y-71356833D01*
X118542834Y-71356833D01*
X118542834Y-61556666D01*
X108763834Y-61556666D01*
X104742167Y-61556666D01*
X104742167Y-57556166D01*
X122564500Y-57556166D01*
X122564500Y-75357333D01*
G37*
X122564500Y-75357333D02*
X104742167Y-75357333D01*
X104742167Y-61556666D01*
X108763834Y-61556666D01*
X108763834Y-71356833D01*
X118542834Y-71356833D01*
X118542834Y-61556666D01*
X108763834Y-61556666D01*
X104742167Y-61556666D01*
X104742167Y-57556166D01*
X122564500Y-57556166D01*
X122564500Y-75357333D01*
G36*
X160664500Y-75357333D02*
G01*
X142842167Y-75357333D01*
X142842167Y-61556666D01*
X146863834Y-61556666D01*
X146863834Y-71356833D01*
X156642834Y-71356833D01*
X156642834Y-61556666D01*
X146863834Y-61556666D01*
X142842167Y-61556666D01*
X142842167Y-57556166D01*
X160664500Y-57556166D01*
X160664500Y-75357333D01*
G37*
X160664500Y-75357333D02*
X142842167Y-75357333D01*
X142842167Y-61556666D01*
X146863834Y-61556666D01*
X146863834Y-71356833D01*
X156642834Y-71356833D01*
X156642834Y-61556666D01*
X146863834Y-61556666D01*
X142842167Y-61556666D01*
X142842167Y-57556166D01*
X160664500Y-57556166D01*
X160664500Y-75357333D01*
G36*
X141614500Y-72986666D02*
G01*
X123792167Y-72986666D01*
X123792167Y-59186000D01*
X127813834Y-59186000D01*
X127813834Y-68965000D01*
X137592834Y-68965000D01*
X137592834Y-59186000D01*
X127813834Y-59186000D01*
X123792167Y-59186000D01*
X123792167Y-55164333D01*
X141614500Y-55164333D01*
X141614500Y-72986666D01*
G37*
X141614500Y-72986666D02*
X123792167Y-72986666D01*
X123792167Y-59186000D01*
X127813834Y-59186000D01*
X127813834Y-68965000D01*
X137592834Y-68965000D01*
X137592834Y-59186000D01*
X127813834Y-59186000D01*
X123792167Y-59186000D01*
X123792167Y-55164333D01*
X141614500Y-55164333D01*
X141614500Y-72986666D01*
G36*
X84464500Y-61069833D02*
G01*
X66642167Y-61069833D01*
X66642167Y-47269166D01*
X70663834Y-47269166D01*
X70663834Y-57048166D01*
X80442834Y-57048166D01*
X80442834Y-47269166D01*
X70663834Y-47269166D01*
X66642167Y-47269166D01*
X66642167Y-43247500D01*
X84464500Y-43247500D01*
X84464500Y-61069833D01*
G37*
X84464500Y-61069833D02*
X66642167Y-61069833D01*
X66642167Y-47269166D01*
X70663834Y-47269166D01*
X70663834Y-57048166D01*
X80442834Y-57048166D01*
X80442834Y-47269166D01*
X70663834Y-47269166D01*
X66642167Y-47269166D01*
X66642167Y-43247500D01*
X84464500Y-43247500D01*
X84464500Y-61069833D01*
G36*
X103514500Y-61069833D02*
G01*
X85692167Y-61069833D01*
X85692167Y-47269166D01*
X89713834Y-47269166D01*
X89713834Y-57048166D01*
X99492834Y-57048166D01*
X99492834Y-47269166D01*
X89713834Y-47269166D01*
X85692167Y-47269166D01*
X85692167Y-43247500D01*
X103514500Y-43247500D01*
X103514500Y-61069833D01*
G37*
X103514500Y-61069833D02*
X85692167Y-61069833D01*
X85692167Y-47269166D01*
X89713834Y-47269166D01*
X89713834Y-57048166D01*
X99492834Y-57048166D01*
X99492834Y-47269166D01*
X89713834Y-47269166D01*
X85692167Y-47269166D01*
X85692167Y-43247500D01*
X103514500Y-43247500D01*
X103514500Y-61069833D01*
G36*
X179714500Y-58699166D02*
G01*
X161892167Y-58699166D01*
X161892167Y-44898500D01*
X165913834Y-44898500D01*
X165913834Y-54677500D01*
X175692834Y-54677500D01*
X175692834Y-44898500D01*
X165913834Y-44898500D01*
X161892167Y-44898500D01*
X161892167Y-40876833D01*
X179714500Y-40876833D01*
X179714500Y-58699166D01*
G37*
X179714500Y-58699166D02*
X161892167Y-58699166D01*
X161892167Y-44898500D01*
X165913834Y-44898500D01*
X165913834Y-54677500D01*
X175692834Y-54677500D01*
X175692834Y-44898500D01*
X165913834Y-44898500D01*
X161892167Y-44898500D01*
X161892167Y-40876833D01*
X179714500Y-40876833D01*
X179714500Y-58699166D01*
G36*
X113648042Y-38490266D02*
G01*
X122553917Y-38495583D01*
X122559233Y-47401458D01*
X122564550Y-56307333D01*
X104742167Y-56307333D01*
X104742167Y-42506666D01*
X108763834Y-42506666D01*
X108763834Y-52285666D01*
X118542834Y-52285666D01*
X118542834Y-42506666D01*
X108763834Y-42506666D01*
X104742167Y-42506666D01*
X104742167Y-38484950D01*
X113648042Y-38490266D01*
G37*
X113648042Y-38490266D02*
X122553917Y-38495583D01*
X122559233Y-47401458D01*
X122564550Y-56307333D01*
X104742167Y-56307333D01*
X104742167Y-42506666D01*
X108763834Y-42506666D01*
X108763834Y-52285666D01*
X118542834Y-52285666D01*
X118542834Y-42506666D01*
X108763834Y-42506666D01*
X104742167Y-42506666D01*
X104742167Y-38484950D01*
X113648042Y-38490266D01*
G36*
X151748042Y-38490266D02*
G01*
X160653917Y-38495583D01*
X160659233Y-47401458D01*
X160664550Y-56307333D01*
X142842167Y-56307333D01*
X142842167Y-42506666D01*
X146863834Y-42506666D01*
X146863834Y-52285666D01*
X156642834Y-52285666D01*
X156642834Y-42506666D01*
X146863834Y-42506666D01*
X142842167Y-42506666D01*
X142842167Y-38484950D01*
X151748042Y-38490266D01*
G37*
X151748042Y-38490266D02*
X160653917Y-38495583D01*
X160659233Y-47401458D01*
X160664550Y-56307333D01*
X142842167Y-56307333D01*
X142842167Y-42506666D01*
X146863834Y-42506666D01*
X146863834Y-52285666D01*
X156642834Y-52285666D01*
X156642834Y-42506666D01*
X146863834Y-42506666D01*
X142842167Y-42506666D01*
X142842167Y-38484950D01*
X151748042Y-38490266D01*
G36*
X141614500Y-53936666D02*
G01*
X123792167Y-53936666D01*
X123792167Y-40136000D01*
X127813834Y-40136000D01*
X127813834Y-49915000D01*
X137592834Y-49915000D01*
X137592834Y-40136000D01*
X127813834Y-40136000D01*
X123792167Y-40136000D01*
X123792167Y-36114333D01*
X141614500Y-36114333D01*
X141614500Y-53936666D01*
G37*
X141614500Y-53936666D02*
X123792167Y-53936666D01*
X123792167Y-40136000D01*
X127813834Y-40136000D01*
X127813834Y-49915000D01*
X137592834Y-49915000D01*
X137592834Y-40136000D01*
X127813834Y-40136000D01*
X123792167Y-40136000D01*
X123792167Y-36114333D01*
X141614500Y-36114333D01*
X141614500Y-53936666D01*
D11*
X63908255Y-120973030D03*
X129678976Y-139839560D03*
X185704580Y-154597290D03*
X209245050Y-113704414D03*
X182860140Y-38720915D03*
X162302760Y-30535074D03*
X112422526Y-29905013D03*
X63709641Y-40694351D03*
X195481100Y-104252815D03*
X183301110Y-86702148D03*
M02*
