G04 #@! TF.GenerationSoftware,KiCad,Pcbnew,(5.1.10)-1*
G04 #@! TF.CreationDate,2021-05-12T20:45:37+09:00*
G04 #@! TF.ProjectId,iris-switch-plate-choc-svg2shenzhen,69726973-2d73-4776-9974-63682d706c61,rev?*
G04 #@! TF.SameCoordinates,Original*
G04 #@! TF.FileFunction,Legend,Top*
G04 #@! TF.FilePolarity,Positive*
%FSLAX46Y46*%
G04 Gerber Fmt 4.6, Leading zero omitted, Abs format (unit mm)*
G04 Created by KiCad (PCBNEW (5.1.10)-1) date 2021-05-12 20:45:37*
%MOMM*%
%LPD*%
G01*
G04 APERTURE LIST*
%ADD10C,0.150000*%
G04 APERTURE END LIST*
D10*
X49952380Y-119666666D02*
X48952380Y-119666666D01*
X48952380Y-119285714D01*
X49000000Y-119190476D01*
X49047619Y-119142857D01*
X49142857Y-119095238D01*
X49285714Y-119095238D01*
X49380952Y-119142857D01*
X49428571Y-119190476D01*
X49476190Y-119285714D01*
X49476190Y-119666666D01*
X49952380Y-118666666D02*
X49285714Y-118666666D01*
X49476190Y-118666666D02*
X49380952Y-118619047D01*
X49333333Y-118571428D01*
X49285714Y-118476190D01*
X49285714Y-118380952D01*
X49952380Y-117904761D02*
X49904761Y-118000000D01*
X49857142Y-118047619D01*
X49761904Y-118095238D01*
X49476190Y-118095238D01*
X49380952Y-118047619D01*
X49333333Y-118000000D01*
X49285714Y-117904761D01*
X49285714Y-117761904D01*
X49333333Y-117666666D01*
X49380952Y-117619047D01*
X49476190Y-117571428D01*
X49761904Y-117571428D01*
X49857142Y-117619047D01*
X49904761Y-117666666D01*
X49952380Y-117761904D01*
X49952380Y-117904761D01*
X49952380Y-116714285D02*
X48952380Y-116714285D01*
X49904761Y-116714285D02*
X49952380Y-116809523D01*
X49952380Y-117000000D01*
X49904761Y-117095238D01*
X49857142Y-117142857D01*
X49761904Y-117190476D01*
X49476190Y-117190476D01*
X49380952Y-117142857D01*
X49333333Y-117095238D01*
X49285714Y-117000000D01*
X49285714Y-116809523D01*
X49333333Y-116714285D01*
X49285714Y-115809523D02*
X49952380Y-115809523D01*
X49285714Y-116238095D02*
X49809523Y-116238095D01*
X49904761Y-116190476D01*
X49952380Y-116095238D01*
X49952380Y-115952380D01*
X49904761Y-115857142D01*
X49857142Y-115809523D01*
X49904761Y-114904761D02*
X49952380Y-115000000D01*
X49952380Y-115190476D01*
X49904761Y-115285714D01*
X49857142Y-115333333D01*
X49761904Y-115380952D01*
X49476190Y-115380952D01*
X49380952Y-115333333D01*
X49333333Y-115285714D01*
X49285714Y-115190476D01*
X49285714Y-115000000D01*
X49333333Y-114904761D01*
X49285714Y-114619047D02*
X49285714Y-114238095D01*
X48952380Y-114476190D02*
X49809523Y-114476190D01*
X49904761Y-114428571D01*
X49952380Y-114333333D01*
X49952380Y-114238095D01*
X49952380Y-113904761D02*
X49285714Y-113904761D01*
X48952380Y-113904761D02*
X49000000Y-113952380D01*
X49047619Y-113904761D01*
X49000000Y-113857142D01*
X48952380Y-113904761D01*
X49047619Y-113904761D01*
X49952380Y-113285714D02*
X49904761Y-113380952D01*
X49857142Y-113428571D01*
X49761904Y-113476190D01*
X49476190Y-113476190D01*
X49380952Y-113428571D01*
X49333333Y-113380952D01*
X49285714Y-113285714D01*
X49285714Y-113142857D01*
X49333333Y-113047619D01*
X49380952Y-113000000D01*
X49476190Y-112952380D01*
X49761904Y-112952380D01*
X49857142Y-113000000D01*
X49904761Y-113047619D01*
X49952380Y-113142857D01*
X49952380Y-113285714D01*
X49285714Y-112523809D02*
X49952380Y-112523809D01*
X49380952Y-112523809D02*
X49333333Y-112476190D01*
X49285714Y-112380952D01*
X49285714Y-112238095D01*
X49333333Y-112142857D01*
X49428571Y-112095238D01*
X49952380Y-112095238D01*
X49904761Y-110428571D02*
X49952380Y-110523809D01*
X49952380Y-110714285D01*
X49904761Y-110809523D01*
X49857142Y-110857142D01*
X49761904Y-110904761D01*
X49476190Y-110904761D01*
X49380952Y-110857142D01*
X49333333Y-110809523D01*
X49285714Y-110714285D01*
X49285714Y-110523809D01*
X49333333Y-110428571D01*
X49952380Y-109857142D02*
X49904761Y-109952380D01*
X49857142Y-110000000D01*
X49761904Y-110047619D01*
X49476190Y-110047619D01*
X49380952Y-110000000D01*
X49333333Y-109952380D01*
X49285714Y-109857142D01*
X49285714Y-109714285D01*
X49333333Y-109619047D01*
X49380952Y-109571428D01*
X49476190Y-109523809D01*
X49761904Y-109523809D01*
X49857142Y-109571428D01*
X49904761Y-109619047D01*
X49952380Y-109714285D01*
X49952380Y-109857142D01*
X49952380Y-108666666D02*
X48952380Y-108666666D01*
X49904761Y-108666666D02*
X49952380Y-108761904D01*
X49952380Y-108952380D01*
X49904761Y-109047619D01*
X49857142Y-109095238D01*
X49761904Y-109142857D01*
X49476190Y-109142857D01*
X49380952Y-109095238D01*
X49333333Y-109047619D01*
X49285714Y-108952380D01*
X49285714Y-108761904D01*
X49333333Y-108666666D01*
X49904761Y-107809523D02*
X49952380Y-107904761D01*
X49952380Y-108095238D01*
X49904761Y-108190476D01*
X49809523Y-108238095D01*
X49428571Y-108238095D01*
X49333333Y-108190476D01*
X49285714Y-108095238D01*
X49285714Y-107904761D01*
X49333333Y-107809523D01*
X49428571Y-107761904D01*
X49523809Y-107761904D01*
X49619047Y-108238095D01*
X49857142Y-107333333D02*
X49904761Y-107285714D01*
X49952380Y-107333333D01*
X49904761Y-107380952D01*
X49857142Y-107333333D01*
X49952380Y-107333333D01*
X49333333Y-107333333D02*
X49380952Y-107285714D01*
X49428571Y-107333333D01*
X49380952Y-107380952D01*
X49333333Y-107333333D01*
X49428571Y-107333333D01*
X44904761Y-119761904D02*
X42904761Y-119761904D01*
X44904761Y-118809523D02*
X43571428Y-118809523D01*
X43952380Y-118809523D02*
X43761904Y-118714285D01*
X43666666Y-118619047D01*
X43571428Y-118428571D01*
X43571428Y-118238095D01*
X44904761Y-117571428D02*
X43571428Y-117571428D01*
X42904761Y-117571428D02*
X43000000Y-117666666D01*
X43095238Y-117571428D01*
X43000000Y-117476190D01*
X42904761Y-117571428D01*
X43095238Y-117571428D01*
X44809523Y-116714285D02*
X44904761Y-116523809D01*
X44904761Y-116142857D01*
X44809523Y-115952380D01*
X44619047Y-115857142D01*
X44523809Y-115857142D01*
X44333333Y-115952380D01*
X44238095Y-116142857D01*
X44238095Y-116428571D01*
X44142857Y-116619047D01*
X43952380Y-116714285D01*
X43857142Y-116714285D01*
X43666666Y-116619047D01*
X43571428Y-116428571D01*
X43571428Y-116142857D01*
X43666666Y-115952380D01*
X44809523Y-113571428D02*
X44904761Y-113285714D01*
X44904761Y-112809523D01*
X44809523Y-112619047D01*
X44714285Y-112523809D01*
X44523809Y-112428571D01*
X44333333Y-112428571D01*
X44142857Y-112523809D01*
X44047619Y-112619047D01*
X43952380Y-112809523D01*
X43857142Y-113190476D01*
X43761904Y-113380952D01*
X43666666Y-113476190D01*
X43476190Y-113571428D01*
X43285714Y-113571428D01*
X43095238Y-113476190D01*
X43000000Y-113380952D01*
X42904761Y-113190476D01*
X42904761Y-112714285D01*
X43000000Y-112428571D01*
X43571428Y-111761904D02*
X44904761Y-111380952D01*
X43952380Y-111000000D01*
X44904761Y-110619047D01*
X43571428Y-110238095D01*
X44904761Y-109476190D02*
X43571428Y-109476190D01*
X42904761Y-109476190D02*
X43000000Y-109571428D01*
X43095238Y-109476190D01*
X43000000Y-109380952D01*
X42904761Y-109476190D01*
X43095238Y-109476190D01*
X43571428Y-108809523D02*
X43571428Y-108047619D01*
X42904761Y-108523809D02*
X44619047Y-108523809D01*
X44809523Y-108428571D01*
X44904761Y-108238095D01*
X44904761Y-108047619D01*
X44809523Y-106523809D02*
X44904761Y-106714285D01*
X44904761Y-107095238D01*
X44809523Y-107285714D01*
X44714285Y-107380952D01*
X44523809Y-107476190D01*
X43952380Y-107476190D01*
X43761904Y-107380952D01*
X43666666Y-107285714D01*
X43571428Y-107095238D01*
X43571428Y-106714285D01*
X43666666Y-106523809D01*
X44904761Y-105666666D02*
X42904761Y-105666666D01*
X44904761Y-104809523D02*
X43857142Y-104809523D01*
X43666666Y-104904761D01*
X43571428Y-105095238D01*
X43571428Y-105380952D01*
X43666666Y-105571428D01*
X43761904Y-105666666D01*
X43571428Y-102333333D02*
X45571428Y-102333333D01*
X43666666Y-102333333D02*
X43571428Y-102142857D01*
X43571428Y-101761904D01*
X43666666Y-101571428D01*
X43761904Y-101476190D01*
X43952380Y-101380952D01*
X44523809Y-101380952D01*
X44714285Y-101476190D01*
X44809523Y-101571428D01*
X44904761Y-101761904D01*
X44904761Y-102142857D01*
X44809523Y-102333333D01*
X44904761Y-100238095D02*
X44809523Y-100428571D01*
X44619047Y-100523809D01*
X42904761Y-100523809D01*
X44904761Y-98619047D02*
X43857142Y-98619047D01*
X43666666Y-98714285D01*
X43571428Y-98904761D01*
X43571428Y-99285714D01*
X43666666Y-99476190D01*
X44809523Y-98619047D02*
X44904761Y-98809523D01*
X44904761Y-99285714D01*
X44809523Y-99476190D01*
X44619047Y-99571428D01*
X44428571Y-99571428D01*
X44238095Y-99476190D01*
X44142857Y-99285714D01*
X44142857Y-98809523D01*
X44047619Y-98619047D01*
X43571428Y-97952380D02*
X43571428Y-97190476D01*
X42904761Y-97666666D02*
X44619047Y-97666666D01*
X44809523Y-97571428D01*
X44904761Y-97380952D01*
X44904761Y-97190476D01*
X44809523Y-95761904D02*
X44904761Y-95952380D01*
X44904761Y-96333333D01*
X44809523Y-96523809D01*
X44619047Y-96619047D01*
X43857142Y-96619047D01*
X43666666Y-96523809D01*
X43571428Y-96333333D01*
X43571428Y-95952380D01*
X43666666Y-95761904D01*
X43857142Y-95666666D01*
X44047619Y-95666666D01*
X44238095Y-96619047D01*
X44142857Y-93285714D02*
X44142857Y-91761904D01*
X44809523Y-88428571D02*
X44904761Y-88619047D01*
X44904761Y-89000000D01*
X44809523Y-89190476D01*
X44714285Y-89285714D01*
X44523809Y-89380952D01*
X43952380Y-89380952D01*
X43761904Y-89285714D01*
X43666666Y-89190476D01*
X43571428Y-89000000D01*
X43571428Y-88619047D01*
X43666666Y-88428571D01*
X44904761Y-87571428D02*
X42904761Y-87571428D01*
X44904761Y-86714285D02*
X43857142Y-86714285D01*
X43666666Y-86809523D01*
X43571428Y-87000000D01*
X43571428Y-87285714D01*
X43666666Y-87476190D01*
X43761904Y-87571428D01*
X44904761Y-85476190D02*
X44809523Y-85666666D01*
X44714285Y-85761904D01*
X44523809Y-85857142D01*
X43952380Y-85857142D01*
X43761904Y-85761904D01*
X43666666Y-85666666D01*
X43571428Y-85476190D01*
X43571428Y-85190476D01*
X43666666Y-85000000D01*
X43761904Y-84904761D01*
X43952380Y-84809523D01*
X44523809Y-84809523D01*
X44714285Y-84904761D01*
X44809523Y-85000000D01*
X44904761Y-85190476D01*
X44904761Y-85476190D01*
X44809523Y-83095238D02*
X44904761Y-83285714D01*
X44904761Y-83666666D01*
X44809523Y-83857142D01*
X44714285Y-83952380D01*
X44523809Y-84047619D01*
X43952380Y-84047619D01*
X43761904Y-83952380D01*
X43666666Y-83857142D01*
X43571428Y-83666666D01*
X43571428Y-83285714D01*
X43666666Y-83095238D01*
X44142857Y-80714285D02*
X44142857Y-79190476D01*
X43095238Y-76809523D02*
X43000000Y-76714285D01*
X42904761Y-76523809D01*
X42904761Y-76047619D01*
X43000000Y-75857142D01*
X43095238Y-75761904D01*
X43285714Y-75666666D01*
X43476190Y-75666666D01*
X43761904Y-75761904D01*
X44904761Y-76904761D01*
X44904761Y-75666666D01*
X42904761Y-74428571D02*
X42904761Y-74238095D01*
X43000000Y-74047619D01*
X43095238Y-73952380D01*
X43285714Y-73857142D01*
X43666666Y-73761904D01*
X44142857Y-73761904D01*
X44523809Y-73857142D01*
X44714285Y-73952380D01*
X44809523Y-74047619D01*
X44904761Y-74238095D01*
X44904761Y-74428571D01*
X44809523Y-74619047D01*
X44714285Y-74714285D01*
X44523809Y-74809523D01*
X44142857Y-74904761D01*
X43666666Y-74904761D01*
X43285714Y-74809523D01*
X43095238Y-74714285D01*
X43000000Y-74619047D01*
X42904761Y-74428571D01*
X43095238Y-73000000D02*
X43000000Y-72904761D01*
X42904761Y-72714285D01*
X42904761Y-72238095D01*
X43000000Y-72047619D01*
X43095238Y-71952380D01*
X43285714Y-71857142D01*
X43476190Y-71857142D01*
X43761904Y-71952380D01*
X44904761Y-73095238D01*
X44904761Y-71857142D01*
X44904761Y-69952380D02*
X44904761Y-71095238D01*
X44904761Y-70523809D02*
X42904761Y-70523809D01*
X43190476Y-70714285D01*
X43380952Y-70904761D01*
X43476190Y-71095238D01*
X42809523Y-67666666D02*
X45380952Y-69380952D01*
X42904761Y-66619047D02*
X42904761Y-66428571D01*
X43000000Y-66238095D01*
X43095238Y-66142857D01*
X43285714Y-66047619D01*
X43666666Y-65952380D01*
X44142857Y-65952380D01*
X44523809Y-66047619D01*
X44714285Y-66142857D01*
X44809523Y-66238095D01*
X44904761Y-66428571D01*
X44904761Y-66619047D01*
X44809523Y-66809523D01*
X44714285Y-66904761D01*
X44523809Y-67000000D01*
X44142857Y-67095238D01*
X43666666Y-67095238D01*
X43285714Y-67000000D01*
X43095238Y-66904761D01*
X43000000Y-66809523D01*
X42904761Y-66619047D01*
X42904761Y-64142857D02*
X42904761Y-65095238D01*
X43857142Y-65190476D01*
X43761904Y-65095238D01*
X43666666Y-64904761D01*
X43666666Y-64428571D01*
X43761904Y-64238095D01*
X43857142Y-64142857D01*
X44047619Y-64047619D01*
X44523809Y-64047619D01*
X44714285Y-64142857D01*
X44809523Y-64238095D01*
X44904761Y-64428571D01*
X44904761Y-64904761D01*
X44809523Y-65095238D01*
X44714285Y-65190476D01*
X42809523Y-61761904D02*
X45380952Y-63476190D01*
X42904761Y-60714285D02*
X42904761Y-60523809D01*
X43000000Y-60333333D01*
X43095238Y-60238095D01*
X43285714Y-60142857D01*
X43666666Y-60047619D01*
X44142857Y-60047619D01*
X44523809Y-60142857D01*
X44714285Y-60238095D01*
X44809523Y-60333333D01*
X44904761Y-60523809D01*
X44904761Y-60714285D01*
X44809523Y-60904761D01*
X44714285Y-61000000D01*
X44523809Y-61095238D01*
X44142857Y-61190476D01*
X43666666Y-61190476D01*
X43285714Y-61095238D01*
X43095238Y-61000000D01*
X43000000Y-60904761D01*
X42904761Y-60714285D01*
X44904761Y-59095238D02*
X44904761Y-58714285D01*
X44809523Y-58523809D01*
X44714285Y-58428571D01*
X44428571Y-58238095D01*
X44047619Y-58142857D01*
X43285714Y-58142857D01*
X43095238Y-58238095D01*
X43000000Y-58333333D01*
X42904761Y-58523809D01*
X42904761Y-58904761D01*
X43000000Y-59095238D01*
X43095238Y-59190476D01*
X43285714Y-59285714D01*
X43761904Y-59285714D01*
X43952380Y-59190476D01*
X44047619Y-59095238D01*
X44142857Y-58904761D01*
X44142857Y-58523809D01*
X44047619Y-58333333D01*
X43952380Y-58238095D01*
X43761904Y-58142857D01*
M02*
