M48
; DRILL file {KiCad (5.1.10)-1} date 05/12/21 20:46:36
; FORMAT={-:-/ absolute / metric / decimal}
; #@! TF.CreationDate,2021-05-12T20:46:36+09:00
; #@! TF.GenerationSoftware,Kicad,Pcbnew,(5.1.10)-1
FMAT,2
METRIC
T1C2.100
T2C0.600
%
G90
G05
T1
X63.71Y-40.694
X63.908Y-120.973
X112.423Y-29.905
X129.679Y-139.84
X162.303Y-30.535
X182.86Y-38.721
X183.301Y-86.702
X185.705Y-154.597
X195.481Y-104.253
X209.245Y-113.704
T2
X57.5Y-51.33
X57.5Y-52.22
X57.5Y-53.11
X57.5Y-54.0
X57.5Y-54.89
X57.5Y-55.78
X57.5Y-56.67
X57.5Y-101.33
X57.5Y-102.22
X57.5Y-103.11
X57.5Y-104.0
X57.5Y-104.89
X57.5Y-105.78
X57.5Y-106.67
X59.5Y-51.33
X59.5Y-52.22
X59.5Y-53.11
X59.5Y-54.0
X59.5Y-54.89
X59.5Y-55.78
X59.5Y-56.67
X59.5Y-101.33
X59.5Y-102.22
X59.5Y-103.11
X59.5Y-104.0
X59.5Y-104.89
X59.5Y-105.78
X59.5Y-106.67
T0
M30
